<?xml version="1.0" encoding="UTF-8" standalone="no"?>
<svg width="380px" height="380px" viewBox="0 0 380 380" version="1.1" xmlns="http://www.w3.org/2000/svg" xmlns:xlink="http://www.w3.org/1999/xlink" xmlns:sketch="http://www.bohemiancoding.com/sketch/ns">
    <!-- Generator: Sketch 3.3.2 (12043) - http://www.bohemiancoding.com/sketch -->
    <title>Group</title>
    <defs></defs>
    <g id="Page-1" stroke="none" stroke-width="1" fill="none" fill-rule="evenodd" sketch:type="MSPage">
        <g id="Group" sketch:type="MSLayerGroup" transform="translate(-2.000000, -2.000000)" fill="#000000">
            <path d="M192,178.226087 C184.403478,178.226087 178.226087,184.403478 178.226087,192 C178.226087,199.596522 184.403478,205.773913 192,205.773913 C199.592348,205.773913 205.773913,199.596522 205.773913,192 C205.773913,184.403478 199.592348,178.226087 192,178.226087 L192,178.226087 Z" id="Shape" sketch:type="MSShapeGroup"></path>
            <path d="M192,119.791304 C152.18087,119.791304 119.791304,152.185043 119.791304,192 C119.791304,231.814957 152.18087,264.208696 192,264.208696 C231.814957,264.208696 264.208696,231.814957 264.208696,192 C264.208696,152.185043 231.814957,119.791304 192,119.791304 L192,119.791304 Z M192,248.347826 C160.929391,248.347826 135.652174,223.070609 135.652174,192 C135.652174,160.929391 160.929391,135.652174 192,135.652174 C223.066435,135.652174 248.343652,160.929391 248.343652,192 C248.343652,223.070609 223.066435,248.347826 192,248.347826 L192,248.347826 Z" id="Shape" sketch:type="MSShapeGroup"></path>
            <path d="M192,2.92173913 C87.7398261,2.92173913 2.92173913,87.7398261 2.92173913,192 C2.92173913,296.260174 87.7398261,381.078261 192,381.078261 C296.260174,381.078261 381.078261,296.260174 381.078261,192 C381.078261,87.7398261 296.260174,2.92173913 192,2.92173913 L192,2.92173913 Z M192,365.217391 C96.4883478,365.217391 18.7826087,287.511652 18.7826087,192 C18.7826087,96.4883478 96.4883478,18.7826087 192,18.7826087 C287.511652,18.7826087 365.213217,96.4883478 365.213217,192 C365.213217,287.511652 287.511652,365.217391 192,365.217391 L192,365.217391 Z" id="Shape" sketch:type="MSShapeGroup"></path>
        </g>
    </g>
</svg>