<?xml version="1.0" encoding="UTF-8" standalone="no"?>
<svg width="146px" height="157px" viewBox="0 0 146 157" version="1.1" xmlns="http://www.w3.org/2000/svg" xmlns:xlink="http://www.w3.org/1999/xlink" xmlns:sketch="http://www.bohemiancoding.com/sketch/ns">
    <!-- Generator: Sketch 3.4.4 (17249) - http://www.bohemiancoding.com/sketch -->
    <title>Page 1</title>
    <desc>Created with Sketch.</desc>
    <defs>
        <path id="path-1" d="M0,0.736 L146.003,0.736 L146.003,157 L0,157 L0,0.736 Z"></path>
    </defs>
    <g id="Page-1" stroke="none" stroke-width="1" fill="none" fill-rule="evenodd" sketch:type="MSPage">
        <g sketch:type="MSLayerGroup">
            <g id="Clip-2"></g>
            <path d="M81.8271,88.0396 C78.5681,93.8286 73.3731,97.3786 67.6191,97.3786 C59.7331,97.3786 55.1271,91.3726 55.1271,82.4946 C55.1271,65.0066 70.8221,61.8286 85.6701,61.8286 L85.6701,66.2716 C85.6701,74.2736 85.8601,80.9286 81.8271,88.0396 L81.8271,88.0396 Z M85.6701,45.3956 C73.7641,46.7186 58.1991,47.6096 47.0561,52.5066 C34.1921,58.0586 25.1541,69.3806 25.1541,86.0436 C25.1541,107.3756 38.6071,118.0316 55.8981,118.0316 C70.5001,118.0316 78.4791,114.5886 89.7481,103.1106 C93.4941,108.5056 94.7011,111.1286 101.5361,116.7916 C103.0511,117.6206 105.0171,117.5396 106.3811,116.3136 L106.4351,116.3586 C110.5191,112.7116 117.9761,106.2416 122.1761,102.7286 C123.8441,101.3706 123.5631,99.1406 122.2381,97.2746 C118.4941,92.0926 114.4921,87.8766 114.4921,78.2556 L114.4921,46.2776 C114.4921,32.7306 115.4411,20.2866 105.4491,10.9596 C97.5801,3.3976 84.5191,0.7366 74.5291,0.7366 C54.9911,0.7366 33.1851,8.0226 28.6051,32.1626 C28.1151,34.7206 29.9961,36.0796 31.6741,36.4466 L51.5701,38.6056 C53.4351,38.5116 54.7891,36.6826 55.1421,34.8276 C56.8511,26.5206 63.8171,22.5066 71.6461,22.5066 C75.8771,22.5066 80.6801,24.0666 83.1801,27.8296 C86.0581,32.0616 85.6701,37.8356 85.6701,42.7296 L85.6701,45.3956 Z M145.4341,120.0816 C143.6551,117.8836 128.3771,115.9996 119.0531,122.5476 C117.6141,123.5536 117.8691,124.9386 119.4571,124.7466 C124.7111,124.1196 136.3961,122.7136 138.4791,125.3836 C140.5661,128.0536 136.1661,139.0436 134.1981,143.9426 C133.6051,145.4266 134.8831,146.0316 136.2231,144.9056 C144.9631,137.5996 147.2231,122.2866 145.4341,120.0816 L145.4341,120.0816 Z M129.8291,129.4806 C111.8851,139.0886 92.3851,143.7126 74.6391,143.7126 C48.3461,143.7126 22.8821,134.6236 2.2891,119.5296 C0.4801,118.2096 -0.8539,120.5366 0.6521,122.2426 C19.7391,143.9476 44.9551,156.9996 72.9611,156.9996 C92.9421,156.9996 116.1461,149.0736 132.1541,134.1956 C134.8101,131.7416 132.5371,128.0346 129.8291,129.4806 L129.8291,129.4806 Z" id="Fill-1" fill="#000000" sketch:type="MSShapeGroup" mask="url(#mask-2)"></path>
        </g>
    </g>
</svg>