<?xml version="1.0" encoding="UTF-8" standalone="no"?>
<svg width="256px" height="448px" viewBox="0 0 256 448" version="1.1" xmlns="http://www.w3.org/2000/svg" xmlns:xlink="http://www.w3.org/1999/xlink" xmlns:sketch="http://www.bohemiancoding.com/sketch/ns">
    <!-- Generator: Sketch 3.3.2 (12043) - http://www.bohemiancoding.com/sketch -->
    <title>ios7-mic-outline</title>
    <defs></defs>
    <g id="Page-1" stroke="none" stroke-width="1" fill="none" fill-rule="evenodd" sketch:type="MSPage">
        <g id="ios7-mic-outline" sketch:type="MSLayerGroup" fill="#000000">
            <g id="Group" sketch:type="MSShapeGroup">
                <path d="M128,0 C84.3,0 49,37.5 49,83.5 L49,238 C49,284 84.3,321.5 128,321.5 C171.7,321.5 207,284 207,238 L207,83.5 C207,37.5 171.7,0 128,0 L128,0 Z M191,238 C191,275.2 162.7,305.5 128,305.5 C93.3,305.5 65,275.2 65,238 L65,83.5 C65,46.3 93.3,16 128,16 C162.7,16 191,46.3 191,83.5 L191,238 L191,238 Z" id="Shape"></path>
                <path d="M239,160 L239,239.7 C239,299.9 189.2,348.9 129,348.9 C68.8,348.9 19,299.9 19,239.7 L19,160 L0,160 L0,239.7 C0,306.9 53,362.3 120,367.2 L120,430 L47,430 L47,448 L208,448 L208,430 L139,430 L139,367.2 C205,362.3 256,306.9 256,239.7 L256,160 L239,160 L239,160 Z" id="Shape"></path>
            </g>
        </g>
    </g>
</svg>