<?xml version="1.0" encoding="UTF-8"?>
<svg width="179px" height="179px" viewBox="0 0 179 179" version="1.1" xmlns="http://www.w3.org/2000/svg" xmlns:xlink="http://www.w3.org/1999/xlink">
    <!-- Generator: Sketch 48.2 (47327) - http://www.bohemiancoding.com/sketch -->
    <title>dice</title>
    <desc>Created with Sketch.</desc>
    <defs></defs>
    <g id="Page-1" stroke="none" stroke-width="1" fill="none" fill-rule="evenodd">
        <g id="dice" fill="#000000" fill-rule="nonzero">
            <path d="M178.86,79.1 C178.86,95.76 178.75,112.41 178.94,129.1 C178.94,133.18 177.48,135.44 173.94,137.29 C148.08,150.67 122.28,164.163333 96.54,177.77 C94.53365,178.979334 92.0361177,179.032635 89.98,177.91 C61.3266667,164.116667 32.6666667,150.36 4,136.64 C1.4688564,135.61781 -0.106081302,133.071189 0.11,130.35 C0.11,95.87 0.11,61.3933333 0.11,26.92 C0.11,23.7 1.65,22.03 4.63,21.3 C32.0766667,14.5066667 59.52,7.68333333 86.96,0.83 C89.0706143,0.382524281 91.260878,0.485838605 93.32,1.13 C120.28,7.79666667 147.24,14.49 174.2,21.21 C178.06,22.21 178.98,24.49 178.95,28.15 C178.79,45.1 178.86,62.1 178.86,79.1 Z M89.47,112.64 C89.47,95.48 89.39,78.32 89.57,61.14 C89.57,57.97 88.73,56.55 85.57,55.55 C61.1366667,47.8633333 36.7366667,40.06 12.37,32.14 C9.05,31.07 7.9,31.13 7.9,35.21 C8.03,65.57 7.99,95.89 7.9,126.21 C7.89,128.9 8.64,130.31 11.17,131.51 C35.97,143.27 60.7233333,155.15 85.43,167.15 C88.62,168.7 89.55,168.58 89.55,164.64 C89.37,147.29 89.47,129.96 89.47,112.64 Z M97.19,168.1 C98.46,167.65 99.22,167.43 99.84,166.99 C122.55,155.15 145.22,143.22 168.01,131.53 C170.93,130.06 171.01,128.11 171.01,125.53 C171.043333,95.59 171.043333,65.62 171.01,35.62 C171.01,34.19 171.54,32.69 170.26,31.19 C146.75,39.38 123.23,47.63 99.66,55.71 C96.66,56.74 97.19,58.81 97.19,60.88 C97.19,95.5066667 97.19,130.136667 97.19,164.77 C97.19,165.71 97.19,166.64 97.19,168.1 Z M160.26,26.5 C159.654336,26.048558 159.004324,25.6598912 158.32,25.34 C136.08,19.76 113.82,14.25 91.59,8.61 C89.47,8.1 87.66,8.63 85.75,9.1 C65.25,14.1533333 44.7733333,19.2866667 24.32,24.5 C22.94,24.82 21.07,24.55 19.78,26.5 C43.88,34.18 67.61,41.73 91.31,49.35 C92.7511532,49.7385988 94.282807,49.6112558 95.64,48.99 C117,41.57 138.32,34.1 160.26,26.5 Z" id="Shape"></path>
            <path d="M75.19,84.68 C75.19,88.49 74.31,91.17 71.45,92.57 C68.59,93.97 66.02,93.24 63.45,91.46 C59.1378159,88.4540758 56.4925476,83.5933026 56.31,78.34 C55.9305379,75.4274683 57.3384534,72.5722 59.88,71.1 C62.5,69.6 65.05,70.23 67.43,71.71 C72.0481708,74.4382389 74.969365,79.3206988 75.19,84.68 Z" id="Shape"></path>
            <path d="M55.09,99.01 C55.14,102.49 54.43,105.26 51.63,106.7 C48.83,108.14 46.19,107.38 43.78,105.48 C39.4026381,102.301363 36.9034497,97.1453801 37.12,91.74 C37.31,85.67 42.5,83 47.58,86.25 C52.0190941,89.0195523 54.8235899,93.7845811 55.09,99.01 Z" id="Shape"></path>
            <path d="M36,113.3 C36,116.3 35.21,118.91 32.28,120.3 C29.35,121.69 27.09,120.47 24.98,118.71 C20.6814573,115.400873 18.3942753,110.108221 18.93,104.71 C19.39,99.32 23.98,97.12 28.61,99.91 C32.85,102.46 36,108.21 36,113.3 Z" id="Shape"></path>
            <path d="M117.45,91.62 C118.01,85.51 120.36,80.89 125.34,77.98 C130.58,74.92 135.7,77.68 135.89,83.72 C136.07,89.42 133.6,94 129.08,97.47 C126.5,99.47 123.68,100.18 120.72,98.47 C117.76,96.76 117.52,94.1 117.45,91.62 Z" id="Shape"></path>
            <path d="M140.9,107.59 C141.37,102.48 143.57,97.81 148.44,94.75 C153.02,91.87 157.63,94.03 158.2,99.43 C158.82,105.33 156.46,110.11 151.88,113.8 C149.7,115.56 147.22,116.52 144.5,115.19 C141.59,113.76 140.9,111.1 140.9,107.59 Z" id="Shape"></path>
            <path d="M91.68,30.44 C88.35,30.37 84.99,30.25 82.02,28.51 C78.43,26.41 78.31,23.07 82.02,21.3 C88.2445509,18.2413368 95.5354491,18.2413368 101.76,21.3 C105.54,23.08 105.41,26.3 101.76,28.45 C98.69,30.24 95.17,30.34 91.68,30.44 Z" id="Shape"></path>
        </g>
    </g>
</svg>