<?xml version="1.0" encoding="UTF-8" standalone="no"?>
<svg width="384px" height="358px" viewBox="0 0 384 358" version="1.1" xmlns="http://www.w3.org/2000/svg" xmlns:xlink="http://www.w3.org/1999/xlink" xmlns:sketch="http://www.bohemiancoding.com/sketch/ns">
    <!-- Generator: Sketch 3.4.4 (17249) - http://www.bohemiancoding.com/sketch -->
    <title>social-dropbox-outline</title>
    <desc>Created with Sketch.</desc>
    <defs></defs>
    <g id="Page-1" stroke="none" stroke-width="1" fill="none" fill-rule="evenodd" sketch:type="MSPage">
        <g id="social-dropbox-outline" sketch:type="MSLayerGroup" fill="#000000">
            <g id="Group" sketch:type="MSShapeGroup">
                <path d="M113,0.1 L0,74 L78.3,137 L192,66.2 L113,0.1 L113,0.1 Z M27.4,76.3 L111.9,19.5 L164.8,65.5 L79.4,118 L27.4,76.3 L27.4,76.3 Z" id="Shape"></path>
                <path d="M305.8,136 L192,207.1 L271,273.2 L290,260.6 L290,280.8 L192,340 L94,281.5 L94,261 L113,273.2 L192,207.1 L78.2,136 L0,199.3 L78,250.8 L78,290.2 L192,358 L306,289.5 L306,250.3 L384,199.1 L305.8,136 L305.8,136 Z M79.4,153.9 L164.8,209.3 L111.9,253.4 L27.4,197.6 L79.4,153.9 L79.4,153.9 Z M219.2,209.3 L304.6,153.9 L356.7,197.5 L272.2,253.3 L219.2,209.3 L219.2,209.3 Z" id="Shape"></path>
                <path d="M384,74 L271,0.1 L192,66.2 L305.8,137 L384,74 L384,74 Z M219.2,65.6 L272.1,19.6 L356.6,76.4 L304.6,118 L219.2,65.6 L219.2,65.6 Z" id="Shape"></path>
            </g>
        </g>
    </g>
</svg>