<?xml version="1.0" encoding="UTF-8" standalone="no"?>
<svg width="584px" height="542px" viewBox="0 0 584 542" version="1.1" xmlns="http://www.w3.org/2000/svg" xmlns:xlink="http://www.w3.org/1999/xlink" xmlns:sketch="http://www.bohemiancoding.com/sketch/ns">
    <!-- Generator: Sketch 3.3.3 (12072) - http://www.bohemiancoding.com/sketch -->
    <title>Aa + Line</title>
    <desc>Created with Sketch.</desc>
    <defs></defs>
    <g id="Page-1" stroke="none" stroke-width="1" fill="none" fill-rule="evenodd" sketch:type="MSPage">
        <g id="Aa-+-Line" sketch:type="MSLayerGroup" transform="translate(0.000000, 27.000000)">
            <path d="M557,0 L509,488" id="Line" stroke="#979797" stroke-width="49" stroke-linecap="square" sketch:type="MSShapeGroup"></path>
            <path d="M182.348633,250.240234 L166.992188,132.989258 L99.2431641,250.240234 L182.348633,250.240234 Z M156.694336,93.6044922 L197.34375,93.6044922 L237.270508,359 L197.885742,359 L187.768555,279.507812 L82.8027344,279.507812 L37.2753906,359 L0.419921875,359 L156.694336,93.6044922 Z M329.589844,337.862305 C341.031958,337.862305 352.714784,335.212592 364.638672,329.913086 C384.511818,321.120724 396.616189,306.727965 400.952148,286.734375 L406.37207,260.538086 C401.915668,263.067395 396.375359,265.175122 389.750977,266.861328 C383.126594,268.547534 376.743195,269.75195 370.600586,270.474609 L350.366211,273.003906 C338.201437,274.569669 328.806999,277.03872 322.182617,280.411133 C310.981389,286.071968 304.056003,295.105081 301.40625,307.510742 C299.358714,316.90532 301.195447,324.312473 306.916504,329.732422 C312.637561,335.152371 320.195266,337.862305 329.589844,337.862305 L329.589844,337.862305 Z M394.086914,241.749023 C401.795286,240.785477 407.516257,237.653998 411.25,232.354492 C413.297536,229.463853 414.863276,225.308621 415.947266,219.888672 C418.356132,208.807887 416.127964,200.768417 409.262695,195.77002 C402.397427,190.771622 391.617912,188.272461 376.923828,188.272461 C359.941321,188.272461 346.933639,192.849238 337.900391,202.00293 C332.841772,207.061549 328.68654,214.589143 325.43457,224.585938 L295.083008,224.585938 C300.743843,200.738162 312.005124,184.147345 328.867188,174.812988 C345.729251,165.478632 363.976139,160.811523 383.608398,160.811523 C406.372184,160.811523 423.896423,165.147418 436.181641,173.819336 C448.466858,182.491254 452.682311,195.980703 448.828125,214.288086 L425.161133,325.757812 C424.438473,329.130225 424.528804,331.840159 425.432129,333.887695 C426.335454,335.935232 429.015277,336.958984 433.47168,336.958984 C434.916999,336.958984 436.57307,336.868653 438.439941,336.687988 C440.306813,336.507323 442.324208,336.23633 444.492188,335.875 L439.25293,359.90332 C433.953424,361.34864 429.948744,362.251951 427.23877,362.613281 C424.528795,362.974611 420.88544,363.155273 416.308594,363.155273 C405.107366,363.155273 397.820655,359.180704 394.448242,351.231445 C392.641593,347.015929 392.039385,341.054075 392.641602,333.345703 C384.090127,342.017621 372.949287,349.545215 359.21875,355.928711 C345.488213,362.312206 331.155674,365.503906 316.220703,365.503906 C298.27465,365.503906 284.755091,360.053928 275.661621,349.153809 C266.568151,338.253689 263.767886,324.613689 267.260742,308.233398 C271.114928,290.287345 279.696385,276.376351 293.005371,266.5 C306.314357,256.623649 322.302967,250.541353 340.97168,248.25293 L394.086914,241.749023 Z" id="Aa" fill="#FEFEFE" sketch:type="MSShapeGroup"></path>
        </g>
    </g>
</svg>