<?xml version="1.0" encoding="UTF-8" standalone="no"?>
<svg width="70px" height="90px" viewBox="0 0 70 90" version="1.1" xmlns="http://www.w3.org/2000/svg" xmlns:xlink="http://www.w3.org/1999/xlink" xmlns:sketch="http://www.bohemiancoding.com/sketch/ns">
    <!-- Generator: Sketch 3.3.2 (12043) - http://www.bohemiancoding.com/sketch -->
    <title>noun_34248</title>
    <defs></defs>
    <g id="Page-1" stroke="none" stroke-width="1" fill="none" fill-rule="evenodd" sketch:type="MSPage">
        <g id="noun_34248" sketch:type="MSLayerGroup" transform="translate(1.000000, 0.000000)" fill="#000000">
            <rect id="Rectangle-path" sketch:type="MSShapeGroup" x="6.75" y="54" width="4" height="36"></rect>
            <rect id="Rectangle-path" sketch:type="MSShapeGroup" x="6.75" y="0" width="4" height="40"></rect>
            <rect id="Rectangle-path" sketch:type="MSShapeGroup" x="32" y="23" width="4" height="67"></rect>
            <rect id="Rectangle-path" sketch:type="MSShapeGroup" x="32" y="0" width="4" height="10"></rect>
            <rect id="Rectangle-path" sketch:type="MSShapeGroup" x="57.25" y="77" width="4" height="13"></rect>
            <path d="M40.38,19.96 L27.62,19.96 C26.793,19.96 26.12,19.287 26.12,18.46 L26.12,14.54 C26.12,13.713 26.793,13.04 27.62,13.04 L40.38,13.04 C41.207,13.04 41.88,13.713 41.88,14.54 L41.88,18.46 C41.88,19.287 41.208,19.96 40.38,19.96 L40.38,19.96 Z M27.62,14.04 C27.344,14.04 27.12,14.264 27.12,14.54 L27.12,18.46 C27.12,18.736 27.344,18.96 27.62,18.96 L40.38,18.96 C40.656,18.96 40.88,18.736 40.88,18.46 L40.88,14.54 C40.88,14.264 40.656,14.04 40.38,14.04 L27.62,14.04 L27.62,14.04 Z" id="Shape" stroke="#000000" stroke-width="2" sketch:type="MSShapeGroup"></path>
            <path d="M65.761,73.42 L53,73.42 C52.173,73.42 51.5,72.747 51.5,71.92 L51.5,68 C51.5,67.173 52.173,66.5 53,66.5 L65.761,66.5 C66.588,66.5 67.261,67.173 67.261,68 L67.261,71.92 C67.261,72.748 66.588,73.42 65.761,73.42 L65.761,73.42 Z M53,67.5 C52.724,67.5 52.5,67.724 52.5,68 L52.5,71.92 C52.5,72.196 52.724,72.42 53,72.42 L65.761,72.42 C66.037,72.42 66.261,72.196 66.261,71.92 L66.261,68 C66.261,67.724 66.037,67.5 65.761,67.5 L53,67.5 L53,67.5 Z" id="Shape" stroke="#000000" stroke-width="2" sketch:type="MSShapeGroup"></path>
            <path d="M15,50.5 L2.239,50.5 C1.412,50.5 0.739,49.827 0.739,49 L0.739,45.08 C0.739,44.253 1.412,43.58 2.239,43.58 L15,43.58 C15.827,43.58 16.5,44.253 16.5,45.08 L16.5,49 C16.5,49.827 15.827,50.5 15,50.5 L15,50.5 Z M2.239,44.58 C1.963,44.58 1.739,44.804 1.739,45.08 L1.739,49 C1.739,49.276 1.963,49.5 2.239,49.5 L15,49.5 C15.276,49.5 15.5,49.276 15.5,49 L15.5,45.08 C15.5,44.804 15.276,44.58 15,44.58 L2.239,44.58 L2.239,44.58 Z" id="Shape" stroke="#000000" stroke-width="2" sketch:type="MSShapeGroup"></path>
            <rect id="Rectangle-path" sketch:type="MSShapeGroup" x="57.25" y="0" width="4" height="63"></rect>
        </g>
    </g>
</svg>