<?xml version="1.0" encoding="UTF-8" standalone="no"?>
<svg width="64px" height="64px" viewBox="0 0 64 64" version="1.1" xmlns="http://www.w3.org/2000/svg" xmlns:xlink="http://www.w3.org/1999/xlink" xmlns:sketch="http://www.bohemiancoding.com/sketch/ns">
    <!-- Generator: Sketch 3.3.2 (12043) - http://www.bohemiancoding.com/sketch -->
    <title>Group</title>
    <defs></defs>
    <g id="Page-1" stroke="none" stroke-width="1" fill="none" fill-rule="evenodd" sketch:type="MSPage">
        <g id="Group" sketch:type="MSLayerGroup" fill="#000000">
            <g id="Shape" sketch:type="MSShapeGroup">
                <path d="M28.73,22.464 C30.953,22.464 33.365,23.441 34.876,24.953 L39.048,29.124 C40.67,30.746 41.665,33.395 41.524,35.714 C41.46,36.764 41.128,38.212 39.918,39.157 C39.403,39.558 38.618,40.078 37.785,40.628 C35.009,42.462 31.861,44.54 30.93,47.005 C30.224,48.871 29.997,50.774 29.797,52.453 C29.507,54.88 29.279,56.797 27.897,58.18 C25.86,60.215 23.102,61.291 19.919,61.291 C15.692,61.291 11.344,59.367 7.989,56.012 C4.992,53.016 3.14,49.253 2.775,45.421 C2.424,41.731 3.506,38.423 5.825,36.106 C7.206,34.725 9.123,34.496 11.551,34.207 C13.229,34.006 15.132,33.778 16.997,33.075 C19.463,32.144 21.541,28.995 23.375,26.217 C23.924,25.385 24.443,24.599 24.845,24.085 C25.888,22.745 27.534,22.464 28.73,22.464 L28.73,22.464 Z M28.73,20.464 C26.586,20.464 24.566,21.188 23.266,22.852 C21.592,24.996 18.833,30.241 16.288,31.202 C12.074,32.794 7.467,31.631 4.408,34.691 C-1.273,40.372 -0.302,50.55 6.573,57.425 C10.439,61.291 15.349,63.29 19.917,63.29 C23.474,63.29 26.822,62.078 29.309,59.592 C32.371,56.531 31.205,51.925 32.798,47.711 C33.759,45.166 39.003,42.407 41.147,40.732 C44.93,37.779 43.856,31.102 40.461,27.709 L36.289,23.538 C34.391,21.638 31.46,20.464 28.73,20.464 L28.73,20.464 L28.73,20.464 Z"></path>
                <path d="M28.632,42.109 C24.915,42.109 21.89,39.085 21.89,35.368 C21.89,31.65 24.914,28.626 28.632,28.626 C32.35,28.626 35.374,31.65 35.374,35.368 C35.374,39.085 32.35,42.109 28.632,42.109 L28.632,42.109 Z M28.632,30.626 C26.017,30.626 23.89,32.753 23.89,35.368 C23.89,37.982 26.017,40.109 28.632,40.109 C31.247,40.109 33.374,37.982 33.374,35.368 C33.374,32.753 31.247,30.626 28.632,30.626 L28.632,30.626 Z"></path>
                <path d="M52.828,8.802 L55.2,11.173 L39.623,26.749 L37.253,24.378 L52.828,8.802 L52.828,8.802 Z M52.828,5.974 L34.425,24.378 L39.623,29.577 L58.027,11.173 L52.828,5.974 L52.828,5.974 Z"></path>
                <g transform="translate(51.000000, 0.000000)">
                    <path d="M9.79,5.577 C10.546,6.332 10.546,7.563 9.79,8.319 L8.371,9.737 C7.613,10.492 6.385,10.492 5.629,9.737 L3.264,7.372 C2.508,6.617 2.508,5.386 3.264,4.63 L4.684,3.212 C5.438,2.456 6.669,2.456 7.424,3.212 L9.79,5.577 L9.79,5.577 Z M11.159,4.206 L8.795,1.84 C7.286,0.332 4.82,0.332 3.313,1.84 L1.893,3.259 C0.384,4.768 0.384,7.234 1.893,8.742 L4.259,11.108 C5.768,12.617 8.235,12.617 9.742,11.108 L11.159,9.689 C12.668,8.181 12.668,5.714 11.159,4.206 L11.159,4.206 L11.159,4.206 Z"></path>
                </g>
            </g>
        </g>
    </g>
</svg>