<?xml version="1.0" encoding="UTF-8" standalone="no"?>
<svg width="129px" height="128px" viewBox="0 0 129 128" version="1.1" xmlns="http://www.w3.org/2000/svg" xmlns:xlink="http://www.w3.org/1999/xlink" xmlns:sketch="http://www.bohemiancoding.com/sketch/ns">
    <!-- Generator: Sketch 3.4.4 (17249) - http://www.bohemiancoding.com/sketch -->
    <title>googleMusic</title>
    <desc>Created with Sketch.</desc>
    <defs></defs>
    <g id="Page-1" stroke="none" stroke-width="1" fill="none" fill-rule="evenodd" sketch:type="MSPage">
        <g id="googleMusic" sketch:type="MSLayerGroup">
            <g id="Page-1" sketch:type="MSShapeGroup">
                <g id="Group">
                    <path d="M8.6572,64.1353 C8.1132,69.8603 10.2322,75.3023 10.4412,80.9453 C7.3122,83.0133 6.5592,85.9283 7.0532,89.5113 C7.2762,91.1353 8.4932,93.5163 5.3432,94.0143 C4.3412,89.2543 3.4142,84.4753 2.2972,79.7423 C1.9092,78.0973 2.3222,76.0783 0.5082,74.9423 L0.5082,53.9443 C2.2292,52.5003 1.9072,50.3183 2.3712,48.4653 C11.3522,12.5253 49.5942,-8.4897 84.7102,3.2913 C85.7892,3.6543 86.7772,4.2913 87.8072,4.8013 C85.4912,6.9593 82.7852,5.7563 80.8572,4.7473 C75.7502,2.0723 71.8492,6.0463 67.3632,6.4933 C67.7572,7.0483 69.1902,6.8433 68.5642,8.1443 C66.6832,9.6253 64.4492,9.2233 62.3262,9.2563 C39.7202,9.6143 17.5502,27.1723 11.7832,49.1173 C10.4782,54.0843 10.5422,59.3093 8.6572,64.1353" id="Fill-4" fill="#EF7916"></path>
                    <path d="M68.501,7.9199 C67.841,7.4779 66.763,7.1459 66.61,6.5679 C66.33,5.5089 67.595,6.2709 67.947,5.8809 C74.219,-1.0481 81.169,4.7579 87.807,4.8009 C109.947,13.4909 122.711,29.9499 127.514,52.9169 C129.494,62.3849 128.43,71.7779 126.455,81.1389 C124.363,91.0519 122.42,100.9959 120.411,110.9279 C116.729,111.7309 118.238,109.0399 118.48,107.7289 C119.318,103.1939 120.19,98.6609 121.141,94.1509 C122.089,89.6559 121.599,85.7039 118.236,82.3579 C118.043,81.8219 118.122,81.3299 118.469,80.8809 C118.942,75.2839 120.835,69.8439 120.327,64.1359 C119.382,62.8669 119.33,61.3749 119.167,59.8759 C116.365,34.0979 99.591,15.4849 74.449,10.1629 C72.37,9.7219 70.112,9.6469 68.501,7.9199" id="Fill-6" fill="#EF7109"></path>
                    <path d="M118.4688,80.8809 C118.5008,81.2579 118.5328,81.6349 118.5658,82.0099 C119.4188,88.3949 116.9548,94.3159 115.8478,100.4069 C115.1278,104.3649 115.4648,108.7239 112.5318,112.0869 C111.8488,115.6859 111.0618,119.2699 110.5128,122.8879 C109.9748,126.4299 108.2858,128.2029 104.5088,127.9799 C100.5238,127.7429 96.5198,127.8289 92.5238,127.7749 C91.0428,125.5679 91.9498,123.2279 92.3768,121.0429 C95.0428,107.3909 97.3928,93.6769 100.3988,80.0979 C100.8598,78.0159 100.0588,74.1639 104.5018,74.9299 C109.3128,76.5489 114.0568,78.3259 118.4688,80.8809" id="Fill-8" fill="#F17A06"></path>
                    <path d="M11.4336,81.709 C14.8936,77.72 19.8836,76.685 24.5036,74.936 C27.4946,73.869 27.9796,76.342 28.3226,78.071 C31.3896,93.54 34.3706,109.025 37.2816,124.523 C37.4996,125.689 37.3586,126.848 36.4786,127.783 C32.3166,127.836 28.1496,127.797 23.9916,127.971 C20.6626,128.109 19.1266,126.436 18.5826,123.383 C17.9106,119.613 17.1706,115.855 16.4596,112.092 C15.2046,110.686 14.5696,109.017 14.2776,107.17 C13.2446,100.62 11.7246,94.163 10.5176,87.646 C10.1396,85.604 9.1916,83.385 11.4336,81.709" id="Fill-10" fill="#F27F0D"></path>
                    <path d="M90.5039,29.9004 C78.0329,21.6894 64.6569,18.6104 50.3179,23.9034 C34.3179,29.8094 24.9809,41.4834 22.3699,58.3994 C22.0349,60.5744 21.8969,62.7474 19.3719,63.6104 C16.8999,63.2244 14.4049,63.3644 11.9359,63.4724 C9.5479,63.5774 9.1909,62.6064 9.5729,60.5114 C12.8999,42.2704 20.6249,26.9574 37.6159,17.6364 C42.3159,15.0574 47.1199,12.9674 52.5429,12.6174 C55.6789,12.6084 58.8109,12.6654 61.9459,12.4584 C65.4629,12.2254 68.9419,12.7794 72.0359,14.4364 C76.6819,16.9244 81.2529,19.5704 85.8119,22.2034 C88.4319,23.7154 91.6099,25.7304 90.5039,29.9004" id="Fill-12" fill="#FCBC5B"></path>
                    <path d="M104.502,74.9302 C101.224,75.8822 102.026,78.9702 101.588,81.1232 C98.434,96.6462 95.517,112.2182 92.523,127.7742 C82.249,128.4012 79.346,125.0382 81.295,114.8642 C83.317,104.3102 85.231,93.7352 87.291,83.1892 C89.602,71.3592 93.176,69.6792 104.502,74.9302" id="Fill-14" fill="#FAB14E"></path>
                    <path d="M36.4785,127.7832 C33.4315,111.5552 30.4215,95.3202 27.2765,79.1122 C26.9655,77.5112 27.0115,75.2602 24.5035,74.9362 C26.3155,74.2082 28.0965,73.3942 29.9435,72.7702 C35.0415,71.0472 39.5735,73.0922 40.6775,78.3412 C43.5015,91.7652 46.1345,105.2412 48.3785,118.7722 C49.4565,125.2632 45.0665,128.2862 36.4785,127.7832" id="Fill-16" fill="#FAB351"></path>
                    <path d="M52.5059,13.9482 C39.6079,15.7192 30.0979,22.9352 22.1139,32.7072 C15.0499,41.3532 12.9539,51.9272 10.4589,62.5152 C13.1879,63.8692 16.5359,61.9452 19.3719,63.6102 C15.7999,63.7862 12.2289,63.9612 8.6569,64.1352 C7.6479,40.1562 25.8899,15.9882 49.2489,9.9192 C55.6299,8.2622 62.0119,7.8782 68.5009,7.9212 C98.3209,10.7372 121.4899,35.8692 120.3269,64.1362 C116.7579,63.9632 113.1889,63.7892 109.6179,63.6152 C110.9169,60.4732 114.0469,62.4422 116.0639,61.3082 C112.5579,27.1052 81.3139,8.3172 52.5059,13.9482" id="Fill-18" fill="#EBAD55"></path>
                    <path d="M52.5059,13.9482 C66.5719,9.2752 79.6069,12.6642 91.7069,19.8622 C105.8539,28.2742 114.1629,40.9522 116.6159,57.3702 C116.8729,59.0882 117.9329,60.6842 118.6729,62.4652 C115.7669,63.8342 112.4409,61.9432 109.6179,63.6152 C107.5509,62.9762 106.9199,61.2702 106.7529,59.4152 C105.6519,47.1892 99.4689,37.7842 90.5039,29.9002 C89.0849,25.9952 86.4789,23.2692 82.5509,21.8272 C81.6259,21.4872 80.5859,21.2162 79.8669,20.5992 C71.8609,13.7322 62.3899,13.0192 52.5059,13.9482" id="Fill-20" fill="#FDB954"></path>
                    <path d="M11.4336,81.709 C11.2246,89.004 14.0636,95.787 15.0036,102.891 C15.4116,105.967 15.9696,109.024 16.4596,112.092 C8.4866,111.839 8.4526,111.846 6.9046,103.769 C6.2856,100.536 5.8576,97.268 5.3426,94.015 C7.7026,91.409 4.9646,88.76 5.3876,86.034 C5.8886,82.803 6.5606,80.488 10.4416,80.945 C10.7726,81.199 11.1026,81.453 11.4336,81.709" id="Fill-22" fill="#E8710F"></path>
                    <path d="M112.5313,112.0869 C114.1713,101.9859 115.7663,91.8769 118.5653,82.0099 C125.4973,85.2989 122.7273,91.1879 122.1373,96.2639 C121.6443,100.5059 120.3883,104.6649 119.3933,108.8419 C119.1353,109.9279 118.8843,110.8059 120.4113,110.9279 C118.0573,113.1769 115.1093,111.3669 112.5313,112.0869" id="Fill-24" fill="#D46408"></path>
                </g>
            </g>
        </g>
    </g>
</svg>