<?xml version="1.0" encoding="UTF-8"?>
<svg width="301px" height="301px" viewBox="0 0 301 301" version="1.1" xmlns="http://www.w3.org/2000/svg" xmlns:xlink="http://www.w3.org/1999/xlink">
    <!-- Generator: Sketch 42 (36781) - http://www.bohemiancoding.com/sketch -->
    <title>microsoft-groove</title>
    <desc>Created with Sketch.</desc>
    <defs></defs>
    <g id="Page-1" stroke="none" stroke-width="1" fill="none" fill-rule="evenodd">
        <g id="microsoft-groove" fill-rule="nonzero" fill="#1677D6">
            <path d="M217.416,89.539 L230.121,107.499 L261.129,85.115 C272.754,104.787 279,127.36 279,150.5 C279,221.355 221.355,279 150.5,279 C79.645,279 22,221.355 22,150.5 C22,79.645 79.645,22 150.5,22 C175.559,22 200.14,29.375 217.75,41.812 L237.625,27.75 C211.375,8.75 179.846,0 150.5,0 C67.514,0 0,67.514 0,150.5 C0,233.486 67.514,301 150.5,301 C233.486,301 301,233.486 301,150.5 C301,115.322 288.674,81.261 266.238,54.291 L217.416,89.539 Z" id="Shape"></path>
            <path d="M150.5,205.81 C120.002,205.81 95.191,180.998 95.191,150.5 C95.191,120.002 120.003,95.191 150.5,95.191 C180.997,95.191 205.81,120.003 205.81,150.5 C205.81,180.998 180.998,205.81 150.5,205.81 Z M150.5,131.393 C139.964,131.393 131.393,139.964 131.393,150.5 C131.393,161.035 139.964,169.606 150.5,169.606 C161.036,169.606 169.607,161.035 169.607,150.5 C169.607,139.964 161.036,131.393 150.5,131.393 Z" id="Shape"></path>
        </g>
    </g>
</svg>