<?xml version="1.0" encoding="UTF-8" standalone="no"?>
<svg width="273px" height="398px" viewBox="0 0 273 398" version="1.1" xmlns="http://www.w3.org/2000/svg" xmlns:xlink="http://www.w3.org/1999/xlink" xmlns:sketch="http://www.bohemiancoding.com/sketch/ns">
    <!-- Generator: Sketch 3.3.3 (12072) - http://www.bohemiancoding.com/sketch -->
    <title>isOffline</title>
    <defs></defs>
    <g id="Page-1" stroke="none" stroke-width="1" fill="none" fill-rule="evenodd" sketch:type="MSPage">
        <g id="isOffline" sketch:type="MSLayerGroup" fill="#000000">
            <g id="Page-1" sketch:type="MSShapeGroup">
                <g id="iphone">
                    <path d="M176.000002,227.333861 C181.397483,227.057289 186.704586,226.438246 191.9,225.498042 L191.9,374.2 C191.9,387.3 181.2,398 168.1,398 L23.8,398 C10.7,398 0,387.3 0,374.2 L0,37.9 C0,24.7 10.7,14 23.8,14 L81.2283832,14 C64.042576,31.1417426 51.8189826,53.2560912 46.9006487,78 L16,78 L16,334 L176,334 L176,227.333859 L176.000002,227.333861 Z M96,382.1 C87.1,382.1 79.9,374.9 79.9,366 C79.9,357.1 87.1,349.9 96,349.9 C104.9,349.9 112.1,357.1 112.1,366 C112.1,374.9 104.8,382.1 96,382.1 L96,382.1 Z" id="Shape"></path>
                    <path d="M170,0 C113.12009,0 67,46.1200892 67,103 C67,159.87991 113.12009,206 170,206 C226.87991,206 273,159.87991 273,103 C273,46.1200892 226.87991,0 170,0 L170,0 L170,0 Z M222.833482,68.559375 L158.872322,150.6375 C158.366518,151.143304 157.53884,152.246875 156.527232,152.246875 C155.469642,152.246875 154.77991,151.51116 154.182142,150.913392 C153.584375,150.315625 117.902232,116.012946 117.902232,116.012946 L117.2125,115.323214 C116.936608,114.909375 116.706696,114.403572 116.706696,113.851786 C116.706696,113.3 116.936608,112.794196 117.2125,112.380358 C117.396428,112.196428 117.534375,112.058482 117.718304,111.828572 C121.258928,108.104018 128.432142,100.562946 128.891964,100.103125 C129.489732,99.5053575 129.995536,98.7236604 131.099108,98.7236604 C132.24866,98.7236604 132.984375,99.6892858 133.53616,100.241072 C134.087946,100.792858 154.228125,120.15134 154.228125,120.15134 L205.40625,54.396875 C205.866072,54.0290178 206.417858,53.753125 207.015625,53.753125 C207.613392,53.753125 208.165178,53.9830358 208.625,54.3508928 L222.695536,65.4325892 C223.063392,65.8924108 223.293304,66.4441964 223.293304,67.0419642 C223.339286,67.6397322 223.109375,68.1455358 222.833482,68.559375 L222.833482,68.559375 L222.833482,68.559375 Z" id="Shape"></path>
                </g>
            </g>
        </g>
    </g>
</svg>