<?xml version="1.0" encoding="UTF-8" standalone="no"?>
<svg width="64px" height="320px" viewBox="0 0 64 320" version="1.1" xmlns="http://www.w3.org/2000/svg" xmlns:xlink="http://www.w3.org/1999/xlink" xmlns:sketch="http://www.bohemiancoding.com/sketch/ns">
    <!-- Generator: Sketch 3.3.2 (12043) - http://www.bohemiancoding.com/sketch -->
    <title>Group</title>
    <defs></defs>
    <g id="Page-1" stroke="none" stroke-width="1" fill="none" fill-rule="evenodd" sketch:type="MSPage">
        <g id="ios7-more-outline" sketch:type="MSLayerGroup" transform="translate(0.000000, -1.000000)" fill="#000000">
            <g id="Group" transform="translate(32.000000, 161.000000) rotate(-90.000000) translate(-32.000000, -161.000000) translate(-128.000000, 129.000000)" sketch:type="MSShapeGroup">
                <path d="M160,14 C169.9,14 178,22.1 178,32 C178,41.9 169.9,50 160,50 C150.1,50 142,41.9 142,32 C142,22.1 150.1,14 160,14 L160,14 Z M160,2.82040152e-15 C142.3,2.82040152e-15 128,14.3 128,32 C128,49.7 142.3,64 160,64 C177.7,64 192,49.7 192,32 C192,14.3 177.7,2.82040152e-15 160,2.82040152e-15 L160,2.82040152e-15 L160,2.82040152e-15 Z" id="Shape"></path>
                <path d="M32.4,14 C42.3,14 50.4,22.1 50.4,32 C50.4,41.9 42.3,50 32.4,50 C22.5,50 14.4,41.9 14.4,32 C14.4,22.1 22.5,14 32.4,14 L32.4,14 Z M32.4,1.06336481e-14 C14.7,1.06336481e-14 0.4,14.3 0.4,32 C0.4,49.7 14.7,64 32.4,64 C50.1,64 64.4,49.7 64.4,32 C64.4,14.3 50,1.06336481e-14 32.4,1.06336481e-14 L32.4,1.06336481e-14 L32.4,1.06336481e-14 Z" id="Shape"></path>
                <path d="M288,14 C297.9,14 306,22.1 306,32 C306,41.9 297.9,50 288,50 C278.1,50 270,41.9 270,32 C270,22.1 278.1,14 288,14 L288,14 Z M288,-5.01733799e-15 C270.3,-5.01733799e-15 256,14.3 256,32 C256,49.7 270.3,64 288,64 C305.7,64 320,49.7 320,32 C320,14.3 305.7,-5.01733799e-15 288,-5.01733799e-15 L288,-5.01733799e-15 L288,-5.01733799e-15 Z" id="Shape"></path>
            </g>
        </g>
    </g>
</svg>