<?xml version="1.0" encoding="UTF-8" standalone="no"?>
<svg width="321px" height="356px" viewBox="0 0 321 356" version="1.1" xmlns="http://www.w3.org/2000/svg" xmlns:xlink="http://www.w3.org/1999/xlink" xmlns:sketch="http://www.bohemiancoding.com/sketch/ns">
    <!-- Generator: Sketch 3.3.3 (12072) - http://www.bohemiancoding.com/sketch -->
    <title>ios-musical-notes</title>
    <defs></defs>
    <g id="Page-1" stroke="none" stroke-width="1" fill="none" fill-rule="evenodd" sketch:type="MSPage">
        <g id="ios-musical-notes" sketch:type="MSLayerGroup" fill="#000000">
            <path d="M320,241.9 L320,0 L96,34.6 L96,271.8 C87,271.8 75.1,272.2 52.5,273.1 C9.9,274.7 0,294.9 0,314.4 C0,339.3 13.5,357.9 62.6,355.8 C115.4,353.5 112.9,306.8 112.9,273.3 L112.9,111.8 L303.9,79.8 L303.9,240.4 C294.9,240.4 284,240.8 261.3,241.7 C218.7,243.3 208.8,263.5 208.8,283 C208.8,307.9 221.8,326.5 271,324.4 C324,322.1 320,275.4 320,241.9 L320,241.9 Z" id="Shape" sketch:type="MSShapeGroup"></path>
        </g>
    </g>
</svg>