<?xml version="1.0" encoding="UTF-8" standalone="no"?>
<svg width="46px" height="90px" viewBox="0 0 46 90" version="1.1" xmlns="http://www.w3.org/2000/svg" xmlns:xlink="http://www.w3.org/1999/xlink" xmlns:sketch="http://www.bohemiancoding.com/sketch/ns">
    <!-- Generator: Sketch 3.3.2 (12043) - http://www.bohemiancoding.com/sketch -->
    <title>Shape</title>
    <defs></defs>
    <g id="Page-1" stroke="none" stroke-width="1" fill="none" fill-rule="evenodd" sketch:type="MSPage">
        <path d="M44.045,44.978 L27.736,35.088 L38.054,5.393 C38.441,4.278 38.281,3.1 37.613,2.162 C36.93,1.202 35.821,0.629 34.647,0.629 C33.579,0.629 32.572,1.12 31.884,1.975 L0.907,40.46 C0.255,41.271 -0.013,42.322 0.174,43.346 C0.361,44.369 0.982,45.26 1.879,45.788 L18.322,55.475 L6.231,84.4 C5.759,85.53 5.868,86.749 6.53,87.744 C7.198,88.748 8.359,89.372 9.557,89.372 L9.557,89.372 C10.59,89.372 11.542,88.928 12.24,88.122 L44.895,50.38 C45.585,49.581 45.888,48.525 45.724,47.481 C45.561,46.438 44.948,45.526 44.045,44.978 L44.045,44.978 Z M10.936,83.518 L22.155,56.679 C22.842,55.037 22.203,53.118 20.669,52.215 L4.329,42.589 L33.48,6.371 L23.847,34.097 C23.296,35.681 23.938,37.463 25.371,38.332 L41.545,48.141 L10.936,83.518 L10.936,83.518 Z" id="Shape" fill="#000000" sketch:type="MSShapeGroup"></path>
    </g>
</svg>