<?xml version="1.0" encoding="UTF-8" standalone="no"?>
<svg width="199px" height="118px" viewBox="0 0 199 118" version="1.1" xmlns="http://www.w3.org/2000/svg" xmlns:xlink="http://www.w3.org/1999/xlink" xmlns:sketch="http://www.bohemiancoding.com/sketch/ns">
    <!-- Generator: Sketch 3.4.4 (17249) - http://www.bohemiancoding.com/sketch -->
    <title>Fill 9 + Fill 10</title>
    <desc>Created with Sketch.</desc>
    <defs></defs>
    <g id="Page-1" stroke="none" stroke-width="1" fill="none" fill-rule="evenodd" sketch:type="MSPage">
        <g id="Fill-9-+-Fill-10" sketch:type="MSLayerGroup" fill="#0067A5">
            <path d="M179.672,74.665 C179.72,73.983 179.754,73.297 179.754,72.603 C179.754,56.803 166.946,43.995 151.146,43.995 C145.36,43.995 139.98,45.718 135.479,48.67 C130.037,38.069 119.003,30.81 106.267,30.81 C88.139,30.81 73.443,45.506 73.443,63.634 C73.443,64.31 73.47,64.979 73.51,65.645 C72.797,65.587 72.078,65.549 71.349,65.549 C56.865,65.549 45.124,77.291 45.124,91.775 C45.124,106.203 56.776,117.906 71.182,117.996 L71.182,118 L184.656,118 C185.234,117.766 185.799,117.508 186.351,117.228 C193.726,113.498 198.785,105.854 198.785,97.025 C198.785,85.722 190.5,76.356 179.672,74.665" id="Fill-9" sketch:type="MSShapeGroup"></path>
            <path d="M67.814,59.938 C69.681,40.366 86.214,25.005 106.267,25.005 C118.826,25.005 130.359,31.005 137.559,40.983 C141.827,39.145 146.437,38.19 151.146,38.19 C151.447,38.19 151.745,38.204 152.045,38.212 C149.89,16.881 131.88,0.231 109.981,0.231 C93.403,0.231 79.062,9.777 72.133,23.668 C67.254,20.373 61.373,18.45 55.042,18.45 C38.154,18.45 24.463,32.14 24.463,49.029 C24.463,51.299 24.718,53.509 25.188,55.638 C11.11,56.649 0,68.382 0,82.718 C0,97.717 12.159,109.876 27.158,109.876 L44.962,109.876 C41.407,104.718 39.319,98.48 39.319,91.775 C39.319,75.307 51.809,61.703 67.814,59.938" id="Fill-10" sketch:type="MSShapeGroup"></path>
        </g>
    </g>
</svg>