<?xml version="1.0" encoding="UTF-8" standalone="no"?>
<svg width="100px" height="100px" viewBox="0 0 100 100" version="1.1" xmlns="http://www.w3.org/2000/svg" xmlns:xlink="http://www.w3.org/1999/xlink" xmlns:sketch="http://www.bohemiancoding.com/sketch/ns">
    <!-- Generator: Sketch 3.3.2 (12043) - http://www.bohemiancoding.com/sketch -->
    <title>ios7-pause</title>
    <defs></defs>
    <g id="Page-1" stroke="none" stroke-width="1" fill="none" fill-rule="evenodd" sketch:type="MSPage">
        <g id="ios7-pause" sketch:type="MSLayerGroup" fill="#000000">
            <g id="Group" transform="translate(31.000000, 26.000000)" sketch:type="MSShapeGroup">
                <rect id="Rectangle-path" x="0" y="0" width="12.0351562" height="49"></rect>
                <rect id="Rectangle-path" x="26.9648438" y="0" width="12.0351562" height="49"></rect>
            </g>
            <path d="M50,100 C22.43,100 0,77.57 0,50 C0,22.43 22.43,0 50,0 C77.57,0 100,22.43 100,50 C100,77.57 77.57,100 50,100 L50,100 Z M50,4 C24.636,4 4,24.636 4,50 C4,75.364 24.636,96 50,96 C75.364,96 96,75.364 96,50 C96,24.636 75.364,4 50,4 L50,4 Z" id="Shape" sketch:type="MSShapeGroup"></path>
        </g>
    </g>
</svg>