<?xml version="1.0" encoding="UTF-8" standalone="no"?>
<svg width="44px" height="49px" viewBox="0 0 44 49" version="1.1" xmlns="http://www.w3.org/2000/svg" xmlns:xlink="http://www.w3.org/1999/xlink" xmlns:sketch="http://www.bohemiancoding.com/sketch/ns">
    <!-- Generator: Sketch 3.3.2 (12043) - http://www.bohemiancoding.com/sketch -->
    <title>Clipped + Clipped</title>
    <defs></defs>
    <g id="Page-1" stroke="none" stroke-width="1" fill="none" fill-rule="evenodd" sketch:type="MSPage">
        <g id="Clipped-+-Clipped" sketch:type="MSLayerGroup" fill="#000000">
            <g id="Clipped" sketch:type="MSShapeGroup">
                <g>
                    <path d="M42.3029412,21.7053783 L4.88823529,0.434397163 C2.71470588,-0.79929078 0,0.741371158 0,3.21164303 L0,9.18894799 C0,7.41371158 1.95294118,6.30165485 3.51470588,7.19072104 L30.4147059,22.4843972 C31.9764706,23.3705674 31.9764706,25.5917849 30.4147059,26.4808511 L3.51470588,41.7716312 C1.95294118,42.6635934 0,41.5515366 0,39.7791962 L0,45.7507092 C0,48.2238771 2.71470588,49.770331 4.88823529,48.5308511 L42.3029412,27.262766 C44.4764706,26.029078 44.4764706,22.9390662 42.3029412,21.7053783" id="Shape"></path>
                </g>
                <g transform="translate(0.000000, 13.784870)">
                    <path d="M2.12352941,0.249054374 L18.3823529,9.49013002 C19.3264706,10.0258865 19.3264706,11.3696217 18.3823529,11.9053783 L2.12647059,21.1464539 C1.17941176,21.6880024 0,21.0132388 0,19.9388298 L0,1.45667849 C0,0.382269504 1.17941176,-0.286702128 2.12352941,0.249054374" id="Shape"></path>
                </g>
            </g>
        </g>
    </g>
</svg>