<?xml version="1.0" encoding="UTF-8" standalone="no"?>
<svg width="44px" height="34px" viewBox="0 0 44 34" version="1.1" xmlns="http://www.w3.org/2000/svg" xmlns:xlink="http://www.w3.org/1999/xlink" xmlns:sketch="http://www.bohemiancoding.com/sketch/ns">
    <!-- Generator: Sketch 3.3.2 (12043) - http://www.bohemiancoding.com/sketch -->
    <title>Group</title>
    <defs></defs>
    <g id="Page-1" stroke="none" stroke-width="1" fill="none" fill-rule="evenodd" sketch:type="MSPage">
        <g id="Group" sketch:type="MSLayerGroup" fill="#000000">
            <g transform="translate(7.000000, 6.000000)" id="Shape" sketch:type="MSShapeGroup">
                <path d="M6.5,22.2 C3,19.5 0.9,15.4 0.9,11 C0.9,6.8 2.7,2.9 6,0.2 L7.3,1.7 C4.5,4 3,7.4 3,11 C3,14.8 4.7,18.3 7.8,20.6 L6.5,22.2 L6.5,22.2 Z"></path>
                <path d="M23.5,22.2 L22.3,20.6 C25.3,18.3 27.1,14.8 27.1,11 C27.1,7.4 25.5,4 22.8,1.7 L24.1,0.2 C27.3,2.9 29.2,6.8 29.2,11 C29,15.4 27,19.5 23.5,22.2 L23.5,22.2 Z"></path>
            </g>
            <path d="M22,22.3 C19,22.3 16.6,19.9 16.6,16.9 C16.6,13.9 19,11.5 22,11.5 C25,11.5 27.4,13.9 27.4,16.9 C27.4,19.9 25,22.3 22,22.3 L22,22.3 Z M22,13.6 C20.1,13.6 18.6,15.1 18.6,17 C18.6,18.9 20.1,20.4 22,20.4 C23.9,20.4 25.4,18.9 25.4,17 C25.4,15.1 23.9,13.6 22,13.6 L22,13.6 Z" id="Shape" sketch:type="MSShapeGroup"></path>
            <g id="Shape" sketch:type="MSShapeGroup">
                <path d="M9,33.9 C3.6,29.8 0.6,23.6 0.6,16.9 C0.6,10.6 3.4,4.6 8.3,0.5 L9.6,2 C5.2,5.7 2.6,11.1 2.6,16.9 C2.6,23 5.4,28.6 10.2,32.3 L9,33.9 L9,33.9 Z"></path>
                <path d="M34.9,33.9 L33.7,32.3 C38.6,28.6 41.3,23 41.3,16.9 C41.3,11.1 38.8,5.7 34.3,2 L35.6,0.5 C40.5,4.6 43.3,10.6 43.3,16.9 C43.3,23.6 40.3,29.8 34.9,33.9 L34.9,33.9 Z"></path>
            </g>
        </g>
    </g>
</svg>