<?xml version="1.0" encoding="UTF-8" standalone="no"?>
<svg width="385px" height="384px" viewBox="0 0 385 384" version="1.1" xmlns="http://www.w3.org/2000/svg" xmlns:xlink="http://www.w3.org/1999/xlink" xmlns:sketch="http://www.bohemiancoding.com/sketch/ns">
    <!-- Generator: Sketch 3.3.3 (12072) - http://www.bohemiancoding.com/sketch -->
    <title>ios-search</title>
    <desc>Created with Sketch.</desc>
    <defs></defs>
    <g id="Page-1" stroke="none" stroke-width="1" fill="none" fill-rule="evenodd" sketch:type="MSPage">
        <g id="ios-search" sketch:type="MSLayerGroup" fill="#000000">
            <path d="M384.3,360.7 L271,247.3 C291.8,221.3 304.3,188.2 304.3,152.2 C304.3,68.1 236.2,0 152.3,0 C68.3,0 0.3,68.2 0.3,152.2 C0.3,236.2 68.4,304.4 152.3,304.4 C188.5,304.4 221.7,291.7 247.8,270.6 L361,384 L384.3,360.7 L384.3,360.7 Z M56.1,248.6 C30.4,222.9 16.3,188.7 16.3,152.3 C16.3,115.9 30.5,81.7 56.1,56 C81.7,30.3 116,16 152.3,16 C188.6,16 222.8,30.2 248.5,55.9 C274.2,81.6 288.3,115.8 288.3,152.2 C288.3,188.6 274.1,222.8 248.5,248.5 C222.8,274.2 188.6,288.4 152.3,288.4 C116,288.5 81.8,274.3 56.1,248.6 L56.1,248.6 Z" id="Shape" sketch:type="MSShapeGroup"></path>
        </g>
    </g>
</svg>