<?xml version="1.0" encoding="UTF-8" standalone="no"?>
<svg width="384px" height="386px" viewBox="0 0 384 386" version="1.1" xmlns="http://www.w3.org/2000/svg" xmlns:xlink="http://www.w3.org/1999/xlink" xmlns:sketch="http://www.bohemiancoding.com/sketch/ns">
    <!-- Generator: Sketch 3.3.2 (12043) - http://www.bohemiancoding.com/sketch -->
    <title>Untitled</title>
    <defs></defs>
    <g id="Page-1" stroke="none" stroke-width="1" fill="none" fill-rule="evenodd" sketch:type="MSPage">
        <g id="ios7-gear-outline" sketch:type="MSLayerGroup" fill="#000000">
            <g id="Group" sketch:type="MSShapeGroup">
                <path d="M192.8,97 C167.1,97 143,107 124.9,125.1 C106.8,143.2 96.8,167.3 96.8,193 C96.8,218.7 106.8,242.7 124.9,260.9 C143,279 167.2,289 192.8,289 C218.5,289 242.6,279 260.7,260.9 C278.8,242.8 288.8,218.7 288.8,193 C288.8,167.3 278.8,143.3 260.7,125.1 C242.6,107 218.5,97 192.8,97 L192.8,97 Z M192.8,273 C148.5,273 112.8,237.1 112.8,193 C112.8,148.9 148.5,113 192.8,113 C237.1,113 272.8,148.9 272.8,193 C272.8,237.1 237.1,273 192.8,273 L192.8,273 Z" id="Shape"></path>
                <path d="M360.5,153 L345.3,153 C332.9,153 322.5,142.6 322.5,129.8 C322.5,123.4 325.2,117.7 330,113.4 L339.8,103.8 C349.5,94.2 349.5,78.6 339.8,68.9 L317.5,46.8 C313.1,42.4 306.6,39.8 300,39.8 C293.4,39.8 287,42.4 282.5,46.8 L273.1,56.2 C268.6,61.2 262.4,63.9 255.9,63.9 C243.1,63.9 232.2,53.5 232.2,41.2 L232.2,26.1 C232.2,12.6 221.7,1 208.2,1 L177.8,1 C164,1 153,12.5 153,26.1 L153,41.3 C153,53.6 142.4,64 129.6,64 C123.2,64 117.4,61.3 113,56.6 L103.3,47 C98.9,42.5 92.4,40 85.8,40 C79.2,40 72.8,42.6 68.3,47 L46,69 C36.4,78.6 36.4,94.3 46,103.8 L55.4,113.2 C60.4,117.7 63.2,123.4 63.2,129.9 C63.2,142.7 52.8,153.1 40.4,153.1 L25.2,153.1 C11.5,153 0,164.2 0,177.8 L0,193 L0,208.2 C0,221.7 11.5,233 25.2,233 L40.4,233 C52.8,233 63.2,243.4 63.2,256.2 C63.2,262.6 60.4,268.5 55.4,273 L46,282.2 C36.4,291.8 36.4,307.4 46,317 L68.3,339.2 C72.7,343.7 79.2,346.2 85.8,346.2 C92.4,346.2 98.8,343.6 103.3,339.2 L113,329.6 C117.2,324.9 123.1,322.2 129.5,322.2 C142.3,322.2 152.9,332.6 152.9,344.9 L152.9,360.1 C152.9,373.6 163.9,385.2 177.6,385.2 L208,385.2 C221.6,385.2 232.9,373.7 232.9,360.1 L232.9,344.9 C232.9,332.6 243.4,322.2 256.2,322.2 C262.6,322.2 268.5,325 273.1,329.9 L282.5,339.3 C287,343.7 293.4,346.3 300,346.3 C306.6,346.3 313,343.7 317.5,339.3 L339.8,317.1 C349.4,307.5 349.4,291.8 339.8,282.2 L330,272.6 C325.2,268.3 322.5,262.2 322.5,255.9 C322.5,243.1 332.9,232.3 345.3,232.3 L360.5,232.3 C374.1,232.3 383.8,222 383.8,208.4 L383.8,193 L383.8,177.8 C383.8,164.2 374.1,153 360.5,153 L360.5,153 Z M368,193 L368,208.1 C368,212.3 365.7,216 360.7,216 L345.5,216 C335.2,216 325.4,220.4 318,228 C310.7,235.5 306.7,245.4 306.7,255.8 C306.7,266.6 311.1,276.6 319.2,284 L328.7,293.4 C332,296.8 332,302.4 328.7,305.7 L306.4,327.9 C304.8,329.4 302.5,330.3 300.1,330.3 C297.7,330.3 295.3,329.4 293.8,327.9 L284.7,318.8 C277,310.7 266.9,306.2 256.2,306.2 C245.8,306.2 236.2,310.2 228.7,317.4 C221.1,324.8 217.1,334.5 217.1,344.9 L217.1,360.1 C217.1,365 212.8,369.2 208.2,369.2 L177.8,369.2 C173.2,369.2 169.1,365 169.1,360.1 L169.1,344.9 C169.1,334.6 165,324.8 157.4,317.4 C149.9,310.2 140.1,306.2 129.8,306.2 C119.2,306.2 109,310.7 101.7,318.6 L92.4,327.9 C90.8,329.4 88.5,330.3 86.1,330.3 C83.7,330.3 81.3,329.5 80,328.1 L79.9,328 L79.8,327.9 L57.5,305.7 C54.2,302.4 54.2,296.9 57.5,293.5 L66.6,284.5 C74.8,276.9 79.3,266.8 79.3,256 C79.3,245.6 75.3,236.1 68,228.6 C60.6,221 50.8,217.1 40.5,217.1 L25.2,217.1 C20.2,217.1 16,212.8 16,208.3 L16,193 L16,177.8 C16,173.3 20.2,169 25.2,169 L40.4,169 C50.7,169 60.5,165.1 67.9,157.5 C75.2,150 79.2,140.3 79.2,130 C79.2,119.2 74.7,109.1 66.5,101.6 L57.3,92.5 C55.1,90.3 54.8,87.8 54.8,86.4 C54.8,85.1 55.1,82.5 57.3,80.3 L79.5,58.2 C81.1,56.7 83.4,55.8 85.8,55.8 C88.2,55.8 90.6,56.6 91.9,58 L92,58.1 L92.1,58.2 L101.5,67.6 C108.9,75.6 118.9,80 129.6,80 C140,80 149.7,76 157.2,68.8 C164.8,61.4 169,51.7 169,41.3 L169,26.1 C169,21.2 173,17 177.5,17 L208,17 C212.5,17 216,21.2 216,26.1 L216,41.3 C216,51.6 220.4,61.4 228,68.8 C235.5,76 245.4,80 255.8,80 C266.6,80 276.8,75.5 284.4,67.4 L293.5,58.3 C295.1,56.8 297.4,55.9 299.8,55.9 C302.2,55.9 304.6,56.8 306.1,58.2 L328.4,80.3 C330,81.9 331,84.1 331,86.4 C331,88.7 330.1,90.9 328.5,92.5 L319,101.9 C311,109.3 306.5,119.3 306.5,130.1 C306.5,140.5 310.5,150 317.8,157.5 C325.2,165.1 335,169 345.3,169 L360.5,169 C365.9,169 367.9,174 368,178 L368,193 L368,193 Z" id="Shape"></path>
            </g>
        </g>
    </g>
</svg>