<?xml version="1.0" encoding="UTF-8" standalone="no"?>
<svg width="20px" height="22px" viewBox="0 0 20 22" version="1.1" xmlns="http://www.w3.org/2000/svg" xmlns:xlink="http://www.w3.org/1999/xlink" xmlns:sketch="http://www.bohemiancoding.com/sketch/ns">
    <!-- Generator: Sketch 3.3.2 (12043) - http://www.bohemiancoding.com/sketch -->
    <title>Group</title>
    <defs></defs>
    <g id="Page-1" stroke="none" stroke-width="1" fill="none" fill-rule="evenodd" sketch:type="MSPage">
        <g id="Group" sketch:type="MSLayerGroup" fill="#000000">
            <path d="M6.999,19.502 C6.723,19.502 6.499,19.278 6.499,19.002 L6.499,5.502 C6.499,5.3 6.62,5.118 6.807,5.04 L18.807,0.04 C18.96,-0.023 19.138,-0.007 19.277,0.086 C19.416,0.179 19.499,0.335 19.499,0.502 L19.499,15.502 C19.499,15.778 19.275,16.002 18.999,16.002 C18.723,16.002 18.499,15.778 18.499,15.502 L18.499,1.252 L7.499,5.835 L7.499,19.002 C7.499,19.278 7.275,19.502 6.999,19.502 L6.999,19.502 Z" id="Shape" sketch:type="MSShapeGroup"></path>
            <path d="M6.999,9.002 C6.804,9.002 6.617,8.887 6.537,8.694 C6.432,8.439 6.552,8.146 6.807,8.04 L18.807,3.04 C19.06,2.938 19.355,3.054 19.461,3.31 C19.566,3.565 19.446,3.858 19.191,3.964 L7.191,8.964 C7.129,8.989 7.063,9.002 6.999,9.002 L6.999,9.002 Z" id="Shape" sketch:type="MSShapeGroup"></path>
            <path d="M3.425,21.997 L3.425,21.997 C1.946,21.997 0.821,21.32 0.556,20.273 C0.426,19.76 0.52,19.22 0.827,18.71 C1.305,17.914 2.263,17.274 3.389,16.998 C3.785,16.901 4.184,16.852 4.576,16.852 C6.053,16.852 7.18,17.529 7.444,18.576 C7.574,19.089 7.48,19.629 7.173,20.139 C6.695,20.935 5.737,21.575 4.611,21.851 C4.215,21.947 3.815,21.997 3.425,21.997 L3.425,21.997 Z M4.574,17.852 C4.262,17.852 3.943,17.892 3.626,17.969 C2.766,18.181 2.022,18.661 1.684,19.225 C1.568,19.418 1.446,19.714 1.525,20.028 C1.67,20.599 2.451,20.998 3.424,20.998 L3.425,20.998 C3.736,20.998 4.055,20.958 4.372,20.881 C5.232,20.669 5.976,20.189 6.314,19.625 C6.43,19.432 6.552,19.136 6.473,18.822 C6.329,18.25 5.548,17.852 4.574,17.852 L4.574,17.852 Z" id="Shape" sketch:type="MSShapeGroup"></path>
            <path d="M15.425,18.997 L15.425,18.997 C13.946,18.997 12.821,18.32 12.556,17.273 C12.426,16.76 12.52,16.22 12.827,15.71 C13.305,14.914 14.263,14.274 15.389,13.998 C15.785,13.901 16.184,13.852 16.576,13.852 C18.053,13.852 19.18,14.529 19.444,15.576 C19.574,16.089 19.48,16.629 19.173,17.139 C18.695,17.935 17.737,18.575 16.611,18.851 C16.215,18.947 15.815,18.997 15.425,18.997 L15.425,18.997 Z M16.574,14.852 C16.262,14.852 15.943,14.892 15.626,14.969 C14.766,15.181 14.022,15.661 13.684,16.225 C13.568,16.418 13.446,16.714 13.525,17.028 C13.67,17.599 14.451,17.998 15.424,17.998 L15.425,17.998 C15.736,17.998 16.055,17.958 16.372,17.881 C17.232,17.669 17.976,17.189 18.314,16.625 C18.43,16.432 18.552,16.136 18.473,15.822 C18.329,15.25 17.548,14.852 16.574,14.852 L16.574,14.852 Z" id="Shape" sketch:type="MSShapeGroup"></path>
        </g>
    </g>
</svg>