<?xml version="1.0" encoding="UTF-8" standalone="no"?>
<svg width="600px" height="600px" viewBox="0 0 600 600" version="1.1" xmlns="http://www.w3.org/2000/svg" xmlns:xlink="http://www.w3.org/1999/xlink" xmlns:sketch="http://www.bohemiancoding.com/sketch/ns">
    <!-- Generator: Sketch 3.3.2 (12043) - http://www.bohemiancoding.com/sketch -->
    <title>Group</title>
    <defs></defs>
    <g id="Page-1" stroke="none" stroke-width="1" fill="none" fill-rule="evenodd" sketch:type="MSPage">
        <g id="songs" sketch:type="MSLayerGroup">
            <g id="Page-1" sketch:type="MSShapeGroup">
                <g id="Group">
                    <rect id="Rectangle-1" stroke="#979797" fill="#F3F3F3" x="0" y="0" width="600" height="600"></rect>
                    <path d="M246.63205,452.263091 C241.67785,452.263091 237.65705,448.251455 237.65705,443.308545 L237.65705,201.535818 C237.65705,197.918182 239.829,194.658727 243.18565,193.261818 L458.58565,103.716364 C461.332,102.588091 464.5271,102.874636 467.02215,104.540182 C469.5172,106.205727 471.00705,108.999545 471.00705,111.990364 L471.00705,380.626727 C471.00705,385.569636 466.98625,389.581273 462.03205,389.581273 C457.07785,389.581273 453.05705,385.569636 453.05705,380.626727 L453.05705,125.422182 L255.60705,207.499545 L255.60705,443.308545 C255.60705,448.251455 251.58625,452.263091 246.63205,452.263091 L246.63205,452.263091 L246.63205,452.263091 Z" id="Shape" fill="#919191"></path>
                    <path d="M246.63205,264.217636 C243.1318,264.217636 239.77515,262.158091 238.33915,258.701636 C236.4544,254.134818 238.6084,248.887455 243.18565,246.989091 L458.58565,157.443636 C463.127,155.616909 468.42225,157.694364 470.32495,162.279091 C472.2097,166.845909 470.0557,172.093273 465.47845,173.991636 L250.07845,263.537091 C248.96555,263.984818 247.78085,264.217636 246.63205,264.217636 L246.63205,264.217636 L246.63205,264.217636 Z" id="Shape" fill="#919191"></path>
                    <path d="M182.47875,496.946273 L182.47875,496.946273 C155.9307,496.946273 135.73695,484.821818 130.9802,466.071 C128.6467,456.883636 130.334,447.212727 135.84465,438.079091 C144.42475,423.823455 161.62085,412.361636 181.83255,407.418727 C188.94075,405.681545 196.1028,404.804 203.1392,404.804 C229.65135,404.804 249.881,416.928455 254.6198,435.679273 C256.9533,444.866636 255.266,454.537545 249.75535,463.671182 C241.17525,477.926818 223.97915,489.388636 203.76745,494.331545 C196.65925,496.050818 189.47925,496.946273 182.47875,496.946273 L182.47875,496.946273 L182.47875,496.946273 Z" id="Shape" fill="#919191"></path>
                    <path d="M397.87875,443.219 L397.87875,443.219 C371.3307,443.219 351.13695,431.094545 346.3802,412.343727 C344.0467,403.156364 345.734,393.485455 351.24465,384.351818 C359.82475,370.096182 377.02085,358.634364 397.23255,353.691455 C404.34075,351.954273 411.5028,351.076727 418.5392,351.076727 C445.05135,351.076727 465.281,363.201182 470.0198,381.952 C472.3533,391.139364 470.666,400.810273 465.15535,409.943909 C456.57525,424.199545 439.37915,435.661364 419.16745,440.604273 C412.05925,442.323545 404.87925,443.219 397.87875,443.219 L397.87875,443.219 L397.87875,443.219 Z" id="Shape" fill="#919191"></path>
                </g>
            </g>
        </g>
    </g>
</svg>