<?xml version="1.0" encoding="UTF-8" standalone="no"?>
<svg width="436px" height="246px" viewBox="0 0 436 246" version="1.1" xmlns="http://www.w3.org/2000/svg" xmlns:xlink="http://www.w3.org/1999/xlink" xmlns:sketch="http://www.bohemiancoding.com/sketch/ns">
    <!-- Generator: Sketch 3.4.4 (17249) - http://www.bohemiancoding.com/sketch -->
    <title>Page 1</title>
    <desc>Created with Sketch.</desc>
    <defs>
        <linearGradient x1="50%" y1="0%" x2="50%" y2="100%" id="linearGradient-1">
            <stop stop-color="#F6871F" offset="0%"></stop>
            <stop stop-color="#F04923" offset="100%"></stop>
        </linearGradient>
    </defs>
    <g id="Page-1" stroke="none" stroke-width="1" fill="none" fill-rule="evenodd" sketch:type="MSPage">
        <g sketch:type="MSLayerGroup">
            <g id="Group-6" transform="translate(172.000000, 41.000000)" fill="url(#linearGradient-1)" sketch:type="MSShapeGroup">
                <path d="M2.864,5.229 L0.56,98.179 L2.865,142.904 C2.918,145.753 5.184,148.003 8.019,148.003 L8.019,148.003 C10.846,148.003 13.109,145.753 13.172,142.872 L13.172,142.872 L13.172,142.909 L15.753,98.184 L13.172,5.22 C13.109,2.349 10.846,0.093 8.019,0.093 L8.019,0.093 C5.184,0.093 2.918,2.351 2.864,5.229" id="Fill-4"></path>
            </g>
            <g id="Group-9" transform="translate(154.000000, 37.000000)" fill="url(#linearGradient-1)" sketch:type="MSShapeGroup">
                <path d="M3.007,5.701 L0.482,102.174 L3.009,147.184 C3.068,149.826 5.169,151.921 7.792,151.921 L7.792,151.921 C10.403,151.921 12.502,149.826 12.573,147.161 L12.573,147.161 L12.573,147.193 L15.411,102.174 L12.573,5.696 C12.502,3.031 10.403,0.943 7.792,0.943 L7.792,0.943 C5.169,0.943 3.068,3.034 3.007,5.701" id="Fill-7"></path>
            </g>
            <g id="Group-21" transform="translate(118.000000, 39.000000)" fill="url(#linearGradient-1)" sketch:type="MSShapeGroup">
                <path d="M3.717,4.389 C3.717,4.392 0.754,100.161 0.754,100.161 L0.754,100.161 L3.719,145.887 C3.795,148.115 5.569,149.875 7.759,149.875 L7.759,149.875 C9.936,149.875 11.709,148.12 11.799,145.87 L11.799,145.87 L15.142,100.161 L11.799,4.387 C11.709,2.137 9.936,0.376 7.759,0.376 L7.759,0.376 C5.569,0.376 3.795,2.14 3.717,4.389" id="Fill-19"></path>
            </g>
            <g id="Group-27" transform="translate(136.000000, 35.000000)" fill="url(#linearGradient-1)" sketch:type="MSShapeGroup">
                <path d="M3.293,5.168 L0.549,104.165 L3.295,149.608 C3.363,152.042 5.301,153.966 7.705,153.966 L7.705,153.966 C10.101,153.966 12.036,152.042 12.115,149.589 L12.115,149.589 L15.207,104.17 L12.115,5.165 C12.037,2.706 10.102,0.781 7.705,0.781 L7.705,0.781 C5.301,0.781 3.363,2.708 3.293,5.168" id="Fill-25"></path>
            </g>
            <g id="Group-30" transform="translate(48.000000, 88.000000)" fill="url(#linearGradient-1)" sketch:type="MSShapeGroup">
                <path d="M4.822,3.451 L0.982,51.119 L4.822,97.236 C4.93,98.661 6.03,99.74 7.379,99.74 L7.379,99.74 C8.711,99.74 9.809,98.661 9.929,97.236 L9.929,97.236 L14.293,51.119 L9.929,3.442 C9.809,2.017 8.711,0.94 7.379,0.94 L7.379,0.94 C6.03,0.94 4.93,2.02 4.822,3.451" id="Fill-28"></path>
            </g>
            <g id="Group-33" transform="translate(190.000000, 23.000000)" fill="url(#linearGradient-1)" sketch:type="MSShapeGroup">
                <path d="M5.408,0.965 C3.904,1.95 2.89,3.648 2.859,5.578 L2.859,5.578 L2.839,6.621 L0.773,116.157 C0.773,116.224 2.859,160.621 2.859,160.621 L2.859,160.621 C2.86,160.685 2.868,160.747 2.872,160.81 L2.872,160.81 C2.935,162.051 3.406,163.194 4.158,164.095 L4.158,164.095 C5.176,165.314 6.699,166.095 8.385,166.095 L8.385,166.095 C9.883,166.095 11.252,165.477 12.252,164.48 L12.252,164.48 C13.251,163.487 13.883,162.112 13.911,160.596 L13.911,160.596 L14.143,156.201 L16.24,116.193 L13.912,5.574 C13.879,3.678 12.899,2.002 11.437,1.012 L11.437,1.012 C10.56,0.417 9.508,0.07 8.385,0.07 L8.385,0.07 C7.292,0.07 6.27,0.401 5.408,0.965" id="Fill-31"></path>
            </g>
            <g id="Group-36" transform="translate(66.000000, 92.000000)" fill="url(#linearGradient-1)" sketch:type="MSShapeGroup">
                <path d="M3.838,2.906 L0.213,47.124 L3.838,93.619 C3.935,95.257 5.193,96.5 6.761,96.5 L6.761,96.5 C8.316,96.5 9.572,95.259 9.687,93.617 L9.687,93.617 L13.794,47.124 L9.686,2.887 C9.574,1.257 8.317,0.018 6.761,0.018 L6.761,0.018 C5.193,0.018 3.935,1.259 3.838,2.906" id="Fill-34"></path>
            </g>
            <g id="Group-39" transform="translate(83.000000, 63.000000)" fill="url(#linearGradient-1)" sketch:type="MSShapeGroup">
                <path d="M3.992,4.2 C3.992,4.202 0.588,76.141 0.588,76.141 L0.588,76.141 L3.992,122.633 C4.081,124.448 5.53,125.884 7.289,125.884 L7.289,125.884 C9.033,125.884 10.48,124.448 10.584,122.624 L10.584,122.624 L10.584,122.638 L14.436,76.141 L10.584,4.197 C10.48,2.368 9.033,0.937 7.289,0.937 L7.289,0.937 C5.53,0.937 4.081,2.371 3.992,4.2" id="Fill-37"></path>
            </g>
            <g id="Group-42" transform="translate(100.000000, 47.000000)" fill="url(#linearGradient-1)" sketch:type="MSShapeGroup">
                <path d="M4.012,3.998 C4.012,4.003 0.83,92.392 0.83,92.392 L0.83,92.392 L4.016,138.596 C4.098,140.617 5.709,142.213 7.683,142.213 L7.683,142.213 C9.642,142.213 11.253,140.62 11.349,138.586 L11.349,138.586 L14.949,92.392 L11.35,3.998 C11.256,1.958 9.644,0.363 7.683,0.363 L7.683,0.363 C5.709,0.363 4.098,1.958 4.012,3.998" id="Fill-40"></path>
            </g>
            <g id="Group-48" transform="translate(208.000000, 12.000000)" fill="url(#linearGradient-1)" sketch:type="MSShapeGroup">
                <path d="M4.952,2.023 C3.643,3.102 2.796,4.736 2.772,6.559 L2.772,6.559 L2.759,7.167 L0.354,127.203 L1.58,149.392 L2.773,170.986 C2.814,174.182 5.459,176.821 8.673,176.821 L8.673,176.821 C11.876,176.821 14.52,174.182 14.565,170.941 L14.565,170.941 L14.565,170.99 L17.191,127.203 L17.191,127.201 L14.565,6.55 C14.536,4.419 13.375,2.553 11.673,1.524 L11.673,1.524 C10.791,0.99 9.766,0.677 8.673,0.677 L8.673,0.677 C7.266,0.677 5.97,1.182 4.952,2.023" id="Fill-46"></path>
            </g>
            <g id="Group-51" transform="translate(0.000000, 113.000000)" fill="url(#linearGradient-1)" sketch:type="MSShapeGroup">
                <path d="M3.183,1.925 L0,26.105 L3.183,49.874 C3.304,50.875 4.021,51.575 4.929,51.575 L4.929,51.575 C5.812,51.575 6.528,50.882 6.672,49.884 L6.672,49.884 L10.443,26.105 L6.672,1.917 C6.529,0.92 5.812,0.222 4.929,0.222 L4.929,0.222 C4.021,0.222 3.304,0.924 3.183,1.925" id="Fill-49"></path>
            </g>
            <g id="Group-54" transform="translate(14.000000, 98.000000)" fill="url(#linearGradient-1)" sketch:type="MSShapeGroup">
                <path d="M5.217,2.007 C5.217,2.01 0.936,41.105 0.936,41.105 L0.936,41.105 L5.217,79.343 C5.341,80.366 6.102,81.108 7.028,81.108 L7.028,81.108 C7.946,81.108 8.687,80.385 8.834,79.352 L8.834,79.352 L13.707,41.105 L8.836,2.005 C8.687,0.966 7.946,0.247 7.028,0.247 L7.028,0.247 C6.102,0.247 5.341,0.987 5.217,2.007" id="Fill-52"></path>
            </g>
            <g id="Group-57" transform="translate(31.000000, 90.000000)" fill="url(#linearGradient-1)" sketch:type="MSShapeGroup">
                <path d="M4.95,2.717 C4.95,2.72 0.887,49.11 0.887,49.11 L0.887,49.11 L4.95,93.808 C5.065,95.053 5.983,95.948 7.133,95.948 L7.133,95.948 C8.262,95.948 9.178,95.053 9.312,93.817 L9.312,93.817 L13.93,49.11 L9.315,2.716 C9.178,1.476 8.262,0.58 7.133,0.58 L7.133,0.58 C5.983,0.58 5.065,1.478 4.95,2.717" id="Fill-55"></path>
            </g>
            <g id="Group-60" transform="translate(227.000000, 0.000000)" fill="url(#linearGradient-1)" sketch:type="MSShapeGroup">
                <path d="M40.032,0.129 C27.95,0.129 16.175,2.504 5.772,6.529 L5.772,6.529 C1.73,8.095 0.657,9.7 0.618,12.825 L0.618,12.825 L0.618,182.798 C0.661,186.076 3.204,188.624 6.403,188.944 L6.403,188.944 C6.54,188.958 154.853,188.944 154.853,188.944 L154.853,188.944 C184.429,188.944 208.403,165.234 208.403,135.654 L208.403,135.654 C208.403,106.073 184.429,82.096 154.853,82.096 L154.853,82.096 C147.514,82.096 140.512,83.583 134.138,86.254 L134.138,86.254 C129.876,37.992 89.403,0.129 40.032,0.129 L40.032,0.129 Z" id="Fill-58"></path>
            </g>
            <g id="Group-63" transform="translate(25.000000, 205.000000)" fill="#EF4822" sketch:type="MSShapeGroup">
                <path d="M364.8916,32.6875 L360.9956,32.6875 L360.9956,8.4795 L365.1816,8.4795 C373.5446,8.4795 376.9966,12.4875 376.9966,20.5835 C376.9966,27.8255 373.2126,32.6875 364.8916,32.6875 L364.8916,32.6875 Z M365.4666,0.7815 L353.0766,0.7815 L353.0766,40.3795 L364.8916,40.3795 C375.0896,40.3795 385.1466,34.4945 385.1466,20.5835 C385.1466,6.0975 376.7836,0.7815 365.4666,0.7815 L365.4666,0.7815 Z M335.2546,23.0145 C335.2546,29.3475 332.1536,33.2545 327.1176,33.2545 C322.0786,33.2545 319.0236,29.2375 319.0236,22.9055 L319.0236,0.7815 L311.1036,0.7815 L311.1036,23.0145 C311.1036,34.5525 317.5556,41.0005 327.1176,41.0005 C337.1826,41.0005 343.1826,34.3765 343.1826,22.9055 L343.1826,0.7815 L335.2546,0.7815 L335.2546,23.0145 Z M286.1016,33.1375 C279.7046,33.1375 277.0466,27.6535 277.0466,20.5835 C277.0466,13.5085 279.7046,8.0275 286.1016,8.0275 C292.4886,8.0275 295.1426,13.5085 295.1426,20.5835 C295.1426,27.6535 292.4886,33.1375 286.1016,33.1375 L286.1016,33.1375 Z M286.1016,0.1615 C275.2926,0.1615 268.9056,8.5285 268.9056,20.5835 C268.9056,32.6375 275.2926,41.0005 286.1016,41.0005 C296.9036,41.0005 303.2996,32.6375 303.2996,20.5835 C303.2996,8.5285 296.9036,0.1615 286.1016,0.1615 L286.1016,0.1615 Z M249.3596,0.7815 L241.4356,0.7815 L241.4356,40.3795 L265.2456,40.3795 L265.2456,32.5735 L249.3596,32.5735 L249.3596,0.7815 Z M219.9866,8.0275 C223.5486,8.0275 225.8146,9.6105 227.2276,12.3225 L234.5746,8.9265 C232.0876,3.7805 227.5646,0.1615 220.0976,0.1615 C209.7506,0.1615 202.5106,8.5285 202.5106,20.5835 C202.5106,33.0815 209.4566,41.0005 219.8166,41.0005 C227.0016,41.0005 231.7506,37.6635 234.4676,32.0605 L227.7906,28.0975 C225.7006,31.6085 223.6046,33.1375 220.0416,33.1375 C214.0986,33.1375 210.6456,27.7045 210.6456,20.5835 C210.6456,13.2325 214.0516,8.0275 219.9866,8.0275 L219.9866,8.0275 Z M175.2416,32.6875 L171.3356,32.6875 L171.3356,8.4795 L175.5276,8.4795 C183.8986,8.4795 187.3496,12.4875 187.3496,20.5835 C187.3496,27.8255 183.5566,32.6875 175.2416,32.6875 L175.2416,32.6875 Z M175.8036,0.7815 L163.4216,0.7815 L163.4216,40.3795 L175.2416,40.3795 C185.4216,40.3795 195.4956,34.4945 195.4956,20.5835 C195.4956,6.0975 187.1196,0.7815 175.8036,0.7815 L175.8036,0.7815 Z M145.4336,17.5285 C145.4336,19.7335 145.5436,24.7105 145.5436,26.1855 C145.0376,25.1665 143.7346,23.1805 142.7756,21.7095 L128.7416,0.7815 L121.1626,0.7815 L121.1626,40.3795 L128.9716,40.3795 L128.9716,22.9565 C128.9716,20.7505 128.8556,15.7745 128.8556,14.3015 C129.3696,15.3185 130.6696,17.2975 131.6246,18.7745 L146.1656,40.3795 L153.2416,40.3795 L153.2416,0.7815 L145.4336,0.7815 L145.4336,17.5285 Z M103.3456,23.0145 C103.3456,29.3475 100.2356,33.2545 95.2046,33.2545 C90.1696,33.2545 87.1146,29.2375 87.1146,22.9055 L87.1146,0.7815 L79.1956,0.7815 L79.1956,23.0145 C79.1956,34.5525 85.6466,41.0005 95.2046,41.0005 C105.2696,41.0005 111.2646,34.3765 111.2646,22.9055 L111.2646,0.7815 L103.3456,0.7815 L103.3456,23.0145 Z M54.1956,33.1375 C47.8006,33.1375 45.1416,27.6535 45.1416,20.5835 C45.1416,13.5085 47.8006,8.0275 54.1956,8.0275 C60.5876,8.0275 63.2426,13.5085 63.2426,20.5835 C63.2426,27.6535 60.5876,33.1375 54.1956,33.1375 L54.1956,33.1375 Z M54.1956,0.1615 C43.3926,0.1615 37.0006,8.5285 37.0006,20.5835 C37.0006,32.6375 43.3926,41.0005 54.1956,41.0005 C64.9956,41.0005 71.3906,32.6375 71.3906,20.5835 C71.3906,8.5285 64.9956,0.1615 54.1956,0.1615 L54.1956,0.1615 Z M17.7576,16.1665 C11.4766,14.6915 9.7836,13.9025 9.7836,11.4155 C9.7836,9.6655 11.1956,7.8515 15.4366,7.8515 C19.0586,7.8515 21.8876,9.3275 24.4306,11.9265 L30.1486,6.3815 C26.4116,2.4845 21.8876,0.1615 15.7226,0.1615 C7.9136,0.1615 1.5816,4.5765 1.5816,11.7625 C1.5816,19.5625 6.6726,21.8845 13.9686,23.5755 C21.4356,25.2745 22.7926,26.4125 22.7926,28.9555 C22.7926,31.9545 20.5816,33.2545 15.8886,33.2545 C12.0996,33.2545 8.5406,31.9545 5.7636,28.7255 L0.0506,33.8175 C3.0496,38.2295 8.8226,41.0005 15.4366,41.0005 C26.2406,41.0005 30.9946,35.9135 30.9946,28.3875 C30.9946,19.7875 24.0376,17.6395 17.7576,16.1665 L17.7576,16.1665 Z" id="Fill-61"></path>
            </g>
        </g>
    </g>
</svg>