<?xml version="1.0" encoding="UTF-8" standalone="no"?>
<svg width="83px" height="83px" viewBox="0 0 83 83" version="1.1" xmlns="http://www.w3.org/2000/svg" xmlns:xlink="http://www.w3.org/1999/xlink" xmlns:sketch="http://www.bohemiancoding.com/sketch/ns">
    <!-- Generator: Sketch 3.3.2 (12043) - http://www.bohemiancoding.com/sketch -->
    <title>Shape</title>
    <defs></defs>
    <g id="Page-1" stroke="none" stroke-width="1" fill="none" fill-rule="evenodd" sketch:type="MSPage">
        <path d="M76.004,32.957 L59.277,27.889 L61.748,15.099 C61.945,14.1 62,13.075 62,12.055 L62,9.745 C62,4.338 57.691,0 52.285,0 L50.364,0 C47.729,0 45.589,2.032 45.493,4.666 L45.319,9.411 C45.318,9.45 45.317,9.483 45.318,9.522 C45.39,12.688 44.835,14.386 43.851,16.257 C43.824,16.309 43.798,16.36 43.776,16.414 L38.785,28.349 C35.87,32.889 30.988,35.655 25.624,35.852 C24.784,33.606 22.624,32 20.089,32 L5.911,32 C2.651,32 0,34.651 0,37.911 L0,74.089 C0,77.349 2.651,80 5.911,80 L20.09,80 C23.299,80 25.913,77 25.993,74 L30.883,74 C32.504,74 34.061,74.805 35.156,76 L37.647,78.756 C39.514,80.795 42.169,82 44.93,82 L44.933,82 L64.996,82.017 C69.402,82.015 73.293,79.058 74.46,74.808 L82.646,44.987 C84.07,39.798 81.153,34.518 76.004,32.957 L76.004,32.957 Z M22,74.089 C22,75.143 21.143,76 20.089,76 L5.911,76 C4.857,76 4,75.143 4,74.089 L4,37.911 C4,36.857 4.857,36 5.911,36 L20.09,36 C21.143,36 22,36.857 22,37.911 L22,72.238 L22,74.089 L22,74.089 Z M78.79,43.934 L70.604,73.76 C69.913,76.279 67.606,78.04 64.995,78.041 L44.967,78.049 L45,80.049 L45,78.049 C43,78.049 41.743,77.353 40.632,76.139 L38.123,73.299 C36.273,71.278 33.623,70 30.883,70 L26,70 L26,39.847 C32.614,39.532 38.614,36.065 42.195,30.438 L42.25,30.352 C42.311,30.256 42.364,30.155 42.408,30.05 L47.432,18.035 C48.623,15.749 49.397,13.403 49.317,9.484 L49.489,4.813 C49.507,4.34 49.891,4 50.363,4 L52.284,4 C55.486,4 58,6.544 58,9.745 L58,12.055 C58,12.817 57.971,13.581 57.824,14.326 L54.981,28.891 C54.783,29.899 55.392,30.893 56.375,31.191 L74.839,36.784 C77.897,37.712 79.635,40.852 78.79,43.934 L78.79,43.934 Z" id="Shape" fill="#000000" sketch:type="MSShapeGroup"></path>
    </g>
</svg>