<?xml version="1.0" encoding="UTF-8" standalone="no"?>
<svg width="83px" height="83px" viewBox="0 0 83 83" version="1.1" xmlns="http://www.w3.org/2000/svg" xmlns:xlink="http://www.w3.org/1999/xlink" xmlns:sketch="http://www.bohemiancoding.com/sketch/ns">
    <!-- Generator: Sketch 3.3.2 (12043) - http://www.bohemiancoding.com/sketch -->
    <title>Shape</title>
    <defs></defs>
    <g id="Page-1" stroke="none" stroke-width="1" fill="none" fill-rule="evenodd" sketch:type="MSPage">
        <path d="M83,8.911 C83,5.651 80.349,3 77.089,3 L62.911,3 C59.706,3 57.095,6 57.009,9 L52.118,9 C50.497,9 48.94,8.189 47.845,6.993 L45.354,4.21 C43.487,2.171 40.833,0.971 38.068,0.971 L18.003,0.963 C13.597,0.965 9.706,3.927 8.539,8.177 L0.353,38 C-1.071,43.188 1.847,48.473 6.996,50.033 L23.723,55.101 L21.252,67.891 C21.055,68.889 21,69.913 21,70.933 L21,73.243 C21,78.65 25.309,83 30.715,83 L32.636,83 C35.271,83 37.411,80.961 37.507,78.328 L37.681,73.58 C37.682,73.54 37.683,73.507 37.682,73.467 C37.61,70.302 38.165,68.603 39.149,66.732 C39.176,66.68 39.202,66.629 39.224,66.574 L44.215,54.639 C47.129,50.1 52.01,47.334 57.372,47.136 C58.209,49.388 60.372,51 62.911,51 L77.09,51 C80.349,51 83,48.349 83,45.089 L83,8.911 L83,8.911 Z M40.805,52.551 L40.75,52.637 C40.689,52.733 40.636,52.834 40.592,52.939 L35.568,64.954 C34.377,67.24 33.603,69.586 33.683,73.505 L33.511,78.182 C33.493,78.654 33.109,79 32.637,79 L30.716,79 C27.514,79 25,76.444 25,73.243 L25,70.933 C25,70.171 25.029,69.407 25.176,68.662 L28.019,54.096 C28.217,53.088 27.608,52.094 26.625,51.796 L8.161,46.203 C5.103,45.276 3.367,42.136 4.213,39.055 L12.398,9.228 C13.089,6.709 15.395,4.949 18.006,4.948 L38.07,4.94 C39.713,4.94 41.292,5.636 42.403,6.849 L44.894,9.695 C46.745,11.716 49.377,13 52.117,13 L57,13 L57,43.142 C50.386,43.456 44.386,46.923 40.805,52.551 L40.805,52.551 Z M79,45.089 C79,46.143 78.143,47 77.089,47 L62.911,47 C61.857,47 61,46.143 61,45.089 L61,10.75 L61,8.912 C61,7.857 61.857,7 62.911,7 L77.09,7 C78.143,7 79,7.857 79,8.911 L79,45.089 L79,45.089 Z" id="Shape" fill="#000000" sketch:type="MSShapeGroup"></path>
    </g>
</svg>