<?xml version="1.0" encoding="UTF-8" standalone="no"?>
<svg width="84px" height="80px" viewBox="0 0 84 80" version="1.1" xmlns="http://www.w3.org/2000/svg" xmlns:xlink="http://www.w3.org/1999/xlink" xmlns:sketch="http://www.bohemiancoding.com/sketch/ns">
    <!-- Generator: Sketch 3.3.2 (12043) - http://www.bohemiancoding.com/sketch -->
    <title>Shape</title>
    <defs></defs>
    <g id="Page-1" stroke="none" stroke-width="1" fill="none" fill-rule="evenodd" sketch:type="MSPage">
        <path d="M42,4.905 C42.278,4.905 42.557,5.159 42.768,5.667 L52.58,29.258 L78.049,31.3 C79.145,31.388 79.359,32.045 78.524,32.761 L59.119,49.382 L65.047,74.235 C65.224,74.975 65.01,75.398 64.551,75.398 C64.347,75.398 64.094,75.314 63.804,75.138 L42,61.82 L20.195,75.138 C19.906,75.315 19.653,75.398 19.448,75.398 C18.989,75.398 18.775,74.975 18.952,74.235 L24.88,49.382 L5.477,32.76 C4.642,32.044 4.855,31.387 5.952,31.299 L31.421,29.257 L41.233,5.666 C41.443,5.158 41.722,4.905 42,4.905 L42,4.905 Z M42,0.905 C40.047,0.905 38.379,2.111 37.539,4.131 L28.665,25.466 L5.632,27.313 C3.452,27.488 1.789,28.701 1.186,30.559 C0.583,32.417 1.214,34.376 2.875,35.799 L20.423,50.83 L15.062,73.306 C14.531,75.532 15.355,77.009 15.894,77.691 C16.75,78.775 18.046,79.397 19.449,79.397 C20.408,79.397 21.361,79.112 22.281,78.55 L42,66.507 L61.72,78.552 C62.64,79.114 63.592,79.399 64.552,79.399 C65.955,79.399 67.251,78.777 68.107,77.693 C68.646,77.011 69.47,75.534 68.939,73.308 L63.577,50.83 L81.126,35.798 C82.787,34.375 83.419,32.416 82.815,30.558 C82.211,28.7 80.549,27.487 78.369,27.312 L55.336,25.465 L46.461,4.13 C45.621,2.11 43.953,0.905 42,0.905 L42,0.905 L42,0.905 Z" id="Shape" fill="#000000" sketch:type="MSShapeGroup"></path>
    </g>
</svg>