<?xml version="1.0" encoding="UTF-8" standalone="no"?>
<svg width="384px" height="304px" viewBox="0 0 384 304" version="1.1" xmlns="http://www.w3.org/2000/svg" xmlns:xlink="http://www.w3.org/1999/xlink" xmlns:sketch="http://www.bohemiancoding.com/sketch/ns">
    <!-- Generator: Sketch 3.3.3 (12072) - http://www.bohemiancoding.com/sketch -->
    <title>ios-undo-outline</title>
    <desc>Created with Sketch.</desc>
    <defs></defs>
    <g id="Page-1" stroke="none" stroke-width="1" fill="none" fill-rule="evenodd" sketch:type="MSPage">
        <g id="ios-undo-outline" sketch:type="MSLayerGroup" fill="#000000">
            <path d="M383.9,272.2 C383.9,255.4 387.5,189.1 335.2,136.5 C300,101.1 254.9,83.1 191.9,80.3 L191.9,0 L0,128 L192,256 L192,176.2 C232,177.3 254.4,185.3 278.7,196.2 C309.6,210 334,240.2 354.5,272.8 L373.7,304 L384,304 C384,293.9 383.9,281.1 383.9,272.2 L383.9,272.2 Z M368.2,265.4 C320.6,184.6 267,160 176,160 L176,224.8 L27.9,128.1 L176,31.3 L176,96 C377,96 368.2,265.4 368.2,265.4 L368.2,265.4 Z" id="Shape" sketch:type="MSShapeGroup"></path>
        </g>
    </g>
</svg>