<?xml version="1.0" encoding="UTF-8" standalone="no"?>
<svg width="384px" height="384px" viewBox="0 0 384 384" version="1.1" xmlns="http://www.w3.org/2000/svg" xmlns:xlink="http://www.w3.org/1999/xlink" xmlns:sketch="http://www.bohemiancoding.com/sketch/ns">
    <!-- Generator: Sketch 3.3.3 (12072) - http://www.bohemiancoding.com/sketch -->
    <title>PL_x5F_Film</title>
    <desc>Created with Sketch.</desc>
    <defs></defs>
    <g id="Page-1" stroke="none" stroke-width="1" fill="none" fill-rule="evenodd" sketch:type="MSPage">
        <g id="ios7-film-outline" sketch:type="MSLayerGroup" fill="#000000">
            <g id="PL_x5F_Film" sketch:type="MSShapeGroup">
                <rect id="Rectangle-path" x="0" y="0" width="32" height="34.9"></rect>
                <path d="M303.3,17.5 L303.3,159.9 L80.7,159.9 L80.7,17.5 L303.3,17.5 L303.3,17.5 Z M320,0 L64,0 L64,177.3 L320,177.3 L320,0 L320,0 Z" id="Shape"></path>
                <path d="M303.3,223.9 L303.3,366.6 L80.7,366.6 L80.7,223.9 L303.3,223.9 L303.3,223.9 Z M320,206.4 L64,206.4 L64,384 L320,384 L320,206.4 L320,206.4 Z" id="Shape"></path>
                <rect id="Rectangle-path" x="0" y="69.8" width="32" height="34.9"></rect>
                <rect id="Rectangle-path" x="0" y="139.6" width="32" height="34.9"></rect>
                <rect id="Rectangle-path" x="0" y="209.5" width="32" height="34.9"></rect>
                <rect id="Rectangle-path" x="0" y="279.3" width="32" height="34.9"></rect>
                <rect id="Rectangle-path" x="0" y="349.1" width="32" height="34.9"></rect>
                <rect id="Rectangle-path" x="352" y="0" width="32" height="34.9"></rect>
                <rect id="Rectangle-path" x="352" y="69.8" width="32" height="34.9"></rect>
                <rect id="Rectangle-path" x="352" y="139.6" width="32" height="34.9"></rect>
                <rect id="Rectangle-path" x="352" y="209.5" width="32" height="34.9"></rect>
                <rect id="Rectangle-path" x="352" y="279.3" width="32" height="34.9"></rect>
                <rect id="Rectangle-path" x="352" y="349.1" width="32" height="34.9"></rect>
            </g>
        </g>
    </g>
</svg>