<?xml version="1.0" encoding="UTF-8" standalone="no"?>
<svg width="512px" height="384px" viewBox="0 0 512 384" version="1.1" xmlns="http://www.w3.org/2000/svg" xmlns:xlink="http://www.w3.org/1999/xlink" xmlns:sketch="http://www.bohemiancoding.com/sketch/ns">
    <!-- Generator: Sketch 3.4.4 (17249) - http://www.bohemiancoding.com/sketch -->
    <title>social-youtube</title>
    <desc>Created with Sketch.</desc>
    <defs></defs>
    <g id="Page-1" stroke="none" stroke-width="1" fill="none" fill-rule="evenodd" sketch:type="MSPage">
        <g id="social-youtube" sketch:type="MSLayerGroup" transform="translate(-1.000000, 0.000000)" fill="#000000">
            <path d="M509.6,84.8 C509.6,39.8 476.5,3.6 435.6,3.6 C380.2,1 323.7,-2.84217094e-14 266,-2.84217094e-14 L257,-2.84217094e-14 L248,-2.84217094e-14 C190.4,-2.84217094e-14 133.8,1 78.4,3.6 C37.6,3.6 4.5,40 4.5,85 C2,120.6 0.9,156.2 1,191.8 C0.9,227.4 2,263 4.4,298.7 C4.4,343.7 37.5,380.2 78.3,380.2 C136.5,382.9 196.2,384.1 256.9,384 C317.7,384.2 377.2,383 435.5,380.2 C476.4,380.2 509.5,343.7 509.5,298.7 C511.9,263 513,227.4 512.9,191.7 C513.1,156.1 512,120.5 509.6,84.8 L509.6,84.8 Z M208,289.9 L208,93.4 L353,191.6 L208,289.9 L208,289.9 Z" id="Shape" sketch:type="MSShapeGroup"></path>
        </g>
    </g>
</svg>